<?xml version="1.0" encoding="UTF-8" standalone="no"?>
<svg
   version="1.0"
   width="626.000000pt"
   height="626.000000pt"
   viewBox="0 0 626.000000 626.000000"
   preserveAspectRatio="xMidYMid meet"
   id="svg6"
   sodipodi:docname="altra.svg"
   inkscape:version="1.2.1 (9c6d41e410, 2022-07-14)"
   xmlns:inkscape="http://www.inkscape.org/namespaces/inkscape"
   xmlns:sodipodi="http://sodipodi.sourceforge.net/DTD/sodipodi-0.dtd"
   xmlns="http://www.w3.org/2000/svg"
   xmlns:svg="http://www.w3.org/2000/svg">
  <defs
     id="defs10" />
  <sodipodi:namedview
     id="namedview8"
     pagecolor="#505050"
     bordercolor="#eeeeee"
     borderopacity="1"
     inkscape:showpageshadow="0"
     inkscape:pageopacity="0"
     inkscape:pagecheckerboard="0"
     inkscape:deskcolor="#505050"
     inkscape:document-units="pt"
     showgrid="false"
     inkscape:zoom="0.62899361"
     inkscape:cx="472.18286"
     inkscape:cy="262.32381"
     inkscape:window-width="1366"
     inkscape:window-height="705"
     inkscape:window-x="-8"
     inkscape:window-y="-8"
     inkscape:window-maximized="1"
     inkscape:current-layer="svg6"
     showborder="false" />
  <g
     id="g4876"
     transform="matrix(1.1114837,0,0,1.1114837,-18.989001,-18.048256)">
    <path
       id="path492"
       style="fill:#005454;fill-opacity:1;fill-rule:evenodd;stroke:none;stroke-width:11.25;stroke-miterlimit:9.1;paint-order:fill markers stroke;stop-color:#000000"
       d="m 311.39043,175.43389 c -1.63124,0.003 -3.23081,0.0498 -4.77099,0.13916 -1.54019,0.0894 -3.02145,0.22104 -4.41358,0.39697 -1.39213,0.17594 -2.69623,0.39637 -3.8833,0.65918 -0.59353,0.13141 -1.15739,0.27309 -1.68896,0.42627 -0.53158,0.15319 -1.03018,0.31719 -1.49268,0.49219 -0.7,0.275 -1.47483,0.6375 -2.2749,1.05615 -0.80007,0.41866 -1.62569,0.89319 -2.42578,1.39307 -0.8001,0.49988 -1.57483,1.02529 -2.27491,1.54395 -0.70007,0.51865 -1.32519,1.03086 -1.82519,1.50586 -0.825,0.77498 -1.50557,1.37432 -2.14307,1.83837 -0.31874,0.23203 -0.62666,0.43019 -0.93603,0.59913 -0.30937,0.16893 -0.6213,0.30918 -0.94629,0.4248 -0.325,0.11562 -0.66417,0.20772 -1.02979,0.27978 -0.36562,0.0721 -0.75674,0.12432 -1.18799,0.1626 -0.86248,0.0766 -1.88174,0.0952 -3.15673,0.0952 -0.975,0 -1.96711,0.0699 -2.96631,0.20508 -0.99921,0.13517 -2.00569,0.33531 -3.00879,0.59472 -1.0031,0.25941 -2.00306,0.57799 -2.98975,0.95069 -0.98669,0.37269 -1.96067,0.79937 -2.91064,1.27441 -0.94997,0.47504 -1.87562,0.99947 -2.76856,1.56592 -0.89294,0.56644 -1.75227,1.17536 -2.56787,1.82226 -0.8156,0.64691 -1.58771,1.33143 -2.30566,2.04785 -0.71796,0.71643 -1.38194,1.46476 -1.98194,2.23975 -0.41249,0.5375 -0.82277,1.13456 -1.22607,1.77539 -0.4033,0.64083 -0.80012,1.32576 -1.18213,2.03906 -0.38201,0.7133 -0.75003,1.45408 -1.09863,2.20899 -0.34861,0.7549 -0.67689,1.5239 -0.97998,2.28955 -0.3031,0.76565 -0.58069,1.52937 -0.82617,2.2749 -0.24548,0.74553 -0.45999,1.47196 -0.63575,2.16651 -0.17576,0.69454 -0.31329,1.35604 -0.40722,1.96875 -0.0939,0.6127 -0.14356,1.17725 -0.14356,1.67724 0,0.225 -0.0815,0.47461 -0.22998,0.73389 -0.14843,0.25927 -0.36406,0.52865 -0.63281,0.79101 -0.26875,0.26237 -0.58975,0.51866 -0.95068,0.75293 -0.36094,0.23428 -0.76153,0.4461 -1.18653,0.6211 -0.52499,0.225 -1.06866,0.50974 -1.62451,0.84668 -0.55585,0.33693 -1.12433,0.72643 -1.69775,1.16162 -0.57343,0.43519 -1.15226,0.91577 -1.72998,1.43555 -0.57773,0.51977 -1.15392,1.07778 -1.72266,1.66845 -0.56874,0.59068 -1.12931,1.21392 -1.67578,1.86182 -0.54647,0.6479 -1.07842,1.32125 -1.58935,2.01269 -0.51093,0.69145 -1.00127,1.40125 -1.46337,2.12256 -0.46211,0.72131 -0.89639,1.45391 -1.29639,2.19141 -0.6,1.17499 -1.06835,2.14959 -1.43408,3.09961 -0.18287,0.47501 -0.33978,0.94383 -0.47461,1.42822 -0.13484,0.48439 -0.24749,0.98446 -0.34131,1.52197 -0.0938,0.53752 -0.17015,1.11317 -0.22998,1.74756 -0.0598,0.63439 -0.10337,1.32851 -0.13623,2.10352 -0.0657,1.55002 -0.085,3.42433 -0.085,5.79931 0,2.34999 0.0194,4.21171 0.0835,5.75538 0.032,0.77183 0.0753,1.46411 0.1333,2.09765 0.058,0.63354 0.13056,1.20865 0.22119,1.7461 0.0906,0.53744 0.19824,1.03842 0.32813,1.52197 0.12989,0.48354 0.28125,0.95053 0.45703,1.42236 0.35157,0.94367 0.80196,1.90567 1.37695,3.05567 0.625,1.17498 1.09414,2.08741 1.42383,2.8374 0.16485,0.37499 0.29511,0.70889 0.39258,1.01513 0.0975,0.30625 0.16191,0.58419 0.19629,0.84668 0.0344,0.2625 0.0376,0.51065 0.0132,0.7544 -0.0244,0.24374 -0.0764,0.48389 -0.15527,0.73389 -0.1578,0.49999 -0.42051,1.0374 -0.77051,1.7124 -0.2,0.4 -0.40639,0.95599 -0.60791,1.62011 -0.20151,0.66413 -0.39889,1.43625 -0.58008,2.26758 -0.18118,0.83134 -0.34584,1.72191 -0.48486,2.62354 -0.13902,0.90162 -0.25166,1.81445 -0.32666,2.68945 -0.1,1.35 -0.15584,2.46247 -0.14648,3.44678 0.005,0.49215 0.0257,0.95277 0.0659,1.39453 0.0402,0.44176 0.0989,0.8645 0.18018,1.2832 0.0812,0.41871 0.18429,0.83237 0.31201,1.25537 0.12772,0.42301 0.28029,0.85492 0.45996,1.30957 0.35936,0.90931 0.82824,1.90987 1.42822,3.10987 0.3375,0.71249 0.72393,1.41823 1.14991,2.11084 0.42598,0.6926 0.89101,1.37241 1.38866,2.03027 0.49766,0.65786 1.02802,1.29457 1.58057,1.90283 0.55254,0.60827 1.12763,1.18763 1.71826,1.73145 0.59063,0.54382 1.19569,1.05159 1.80761,1.51611 0.61192,0.46452 1.23076,0.88647 1.84717,1.25684 0.61641,0.37036 1.23135,0.68932 1.83545,0.95068 0.6041,0.26136 1.19747,0.46455 1.77246,0.60205 0.25,0.0625 0.47295,0.12834 0.67237,0.20508 0.19942,0.0767 0.37489,0.164 0.5288,0.271 0.15392,0.10699 0.28642,0.23344 0.39991,0.38671 0.11348,0.15328 0.20897,0.33374 0.28711,0.54932 0.0781,0.21558 0.13963,0.46636 0.1875,0.76025 0.0479,0.2939 0.0813,0.63129 0.104,1.01954 0.0453,0.77648 0.0455,1.75733 0.0205,3.00732 0,0.8 0.0318,1.63195 0.0864,2.45068 0.0546,0.81874 0.13196,1.62454 0.22559,2.37452 0.0936,0.74997 0.20224,1.44386 0.31934,2.03759 0.11709,0.59373 0.24267,1.08702 0.36767,1.43702 0.2375,0.58749 0.52655,1.18016 0.86133,1.77099 0.33478,0.59083 0.71491,1.18016 1.13525,1.76221 0.42034,0.58205 0.88132,1.15564 1.37549,1.7168 0.49418,0.56115 1.02135,1.10954 1.57764,1.63769 0.55628,0.52815 1.14088,1.03748 1.74756,1.52051 0.60667,0.48303 1.23552,0.93943 1.88086,1.36523 0.64534,0.4258 1.30818,0.81982 1.98047,1.17627 0.67228,0.35646 1.35449,0.67569 2.04199,0.95069 l 5.2998,2.2998 -0.99902,3.30029 c -0.15,0.5 -0.26169,1.02236 -0.33399,1.56299 -0.0723,0.54063 -0.1057,1.09931 -0.10107,1.67432 0.005,0.575 0.0481,1.1664 0.12891,1.76953 0.0808,0.60313 0.19978,1.21777 0.35595,1.84277 0.15617,0.62501 0.3493,1.25927 0.58008,1.89991 0.23079,0.64063 0.49811,1.28798 0.80274,1.93798 0.30462,0.65001 0.64622,1.30391 1.02392,1.95703 0.3777,0.65313 0.79219,1.30558 1.24219,1.95557 0.45,0.675 0.83079,1.3431 1.1543,2.04932 0.32351,0.70621 0.58974,1.44995 0.80859,2.2749 0.21885,0.82495 0.39133,1.73148 0.52734,2.7627 0.13601,1.03121 0.23555,2.1877 0.31055,3.51269 0.075,1.59999 0.15633,2.86846 0.28125,3.91846 0.0625,0.525 0.13511,0.9956 0.22412,1.42529 0.089,0.42969 0.19439,0.81816 0.31934,1.18066 0.12494,0.36251 0.27065,0.69903 0.44092,1.02247 0.17026,0.32343 0.36537,0.63378 0.59033,0.94628 0.44991,0.62501 1.01816,1.25684 1.74316,2.00684 0.725,0.75 1.28812,1.36203 1.72412,1.95264 0.218,0.2953 0.40328,0.58595 0.5625,0.88476 0.15922,0.29882 0.29195,0.60626 0.40137,0.9375 0.10942,0.33124 0.19654,0.68556 0.26514,1.07813 0.0686,0.39256 0.11852,0.82384 0.15527,1.30664 0.0735,0.9656 0.0923,2.14014 0.0923,3.64014 0,0.94999 0.0389,1.85673 0.11719,2.72021 0.0783,0.86348 0.19602,1.68348 0.35303,2.4624 0.15701,0.77893 0.35422,1.5156 0.59033,2.21192 0.23611,0.69631 0.51057,1.3531 0.82617,1.96875 0.31561,0.61565 0.67092,1.19157 1.06641,1.72851 0.39548,0.53694 0.83234,1.03397 1.30811,1.49414 0.47576,0.46018 0.99044,0.88319 1.54687,1.26856 0.55643,0.38536 1.15401,0.7334 1.7915,1.0459 0.3625,0.17499 0.68429,0.33918 0.9712,0.50244 0.2869,0.16326 0.53907,0.3262 0.76171,0.49804 0.22265,0.17185 0.41623,0.35297 0.58594,0.55371 0.16972,0.20075 0.31574,0.42094 0.44385,0.6709 0.12811,0.24996 0.23761,0.52866 0.33545,0.84815 0.0978,0.31949 0.18331,0.67903 0.26221,1.08838 0.15779,0.81868 0.28945,1.8377 0.43945,3.13769 0.15,1.5 0.34883,2.871 0.60644,4.12061 0.12881,0.6248 0.27239,1.2186 0.43213,1.78418 0.15974,0.56558 0.33545,1.10273 0.52881,1.61133 0.19336,0.50859 0.40462,0.989 0.63428,1.44287 0.22966,0.45386 0.47695,0.88036 0.7456,1.28173 0.26865,0.40138 0.55833,0.77681 0.86866,1.12793 0.31032,0.35113 0.64141,0.67832 0.99609,0.98145 0.35469,0.30313 0.73206,0.58344 1.13379,0.84082 0.40173,0.25738 0.82881,0.49218 1.28027,0.70605 0.45146,0.21388 0.92728,0.406 1.43116,0.57862 0.50387,0.17261 1.03476,0.32489 1.59375,0.45849 0.55898,0.1336 1.1469,0.24888 1.76367,0.34571 0.61677,0.0968 1.26221,0.17499 1.93945,0.2373 1.35449,0.12462 2.83331,0.18311 4.4458,0.18311 1.64999,0 3.16943,-0.0611 4.56592,-0.19043 0.69825,-0.0647 1.36567,-0.14635 2.00391,-0.2461 0.63824,-0.0997 1.24618,-0.21778 1.82666,-0.35449 0.58047,-0.13671 1.13324,-0.29176 1.6582,-0.46728 0.52496,-0.17553 1.02245,-0.37121 1.49414,-0.58741 0.47169,-0.21619 0.91673,-0.45318 1.3374,-0.71191 0.42067,-0.25873 0.81756,-0.53917 1.18945,-0.84228 0.3719,-0.30312 0.71908,-0.62917 1.04444,-0.97852 0.32536,-0.34935 0.6286,-0.72169 0.90967,-1.11914 0.28107,-0.39745 0.54027,-0.81969 0.77929,-1.26709 0.23903,-0.4474 0.45702,-0.92023 0.65625,-1.41943 0.19923,-0.49921 0.38032,-1.02477 0.542,-1.57764 0.16168,-0.55287 0.30429,-1.13331 0.43066,-1.7417 0.12637,-0.60839 0.23628,-1.24439 0.32959,-1.91016 0.0933,-0.66576 0.17041,-1.36094 0.23291,-2.08593 0.1,-1.35 0.20038,-2.42477 0.32227,-3.28565 0.0609,-0.43044 0.12753,-0.80716 0.20214,-1.13818 0.0746,-0.33102 0.15674,-0.61596 0.25049,-0.8628 0.0938,-0.24683 0.19804,-0.45638 0.31641,-0.63427 0.11836,-0.1779 0.25146,-0.32405 0.3999,-0.44824 0.14844,-0.1242 0.3126,-0.22629 0.49658,-0.31202 0.18399,-0.0857 0.38731,-0.15576 0.61231,-0.21826 0.34999,-0.0875 0.69357,-0.19914 1.02978,-0.33398 0.33621,-0.13484 0.66445,-0.29316 0.98584,-0.47315 0.3214,-0.17998 0.63634,-0.38205 0.9419,-0.60498 0.30555,-0.22293 0.60194,-0.46581 0.89062,-0.72949 0.28869,-0.26368 0.56857,-0.54738 0.83936,-0.84961 0.27079,-0.30223 0.53328,-0.62382 0.78515,-0.9624 0.50375,-0.67717 0.96823,-1.42449 1.39014,-2.23389 0.42191,-0.80939 0.80045,-1.68045 1.13232,-2.60449 0.33188,-0.92404 0.61746,-1.90126 0.85108,-2.92236 0.23362,-1.02111 0.41629,-2.08691 0.54346,-3.1875 0.12716,-1.10059 0.19843,-2.23595 0.21093,-3.39844 0,-0.775 0.0373,-1.46245 0.12159,-2.08594 0.0843,-0.62349 0.2154,-1.18332 0.40283,-1.70215 0.18742,-0.51882 0.43189,-0.99652 0.74121,-1.45752 0.30932,-0.46099 0.68379,-0.90498 1.13379,-1.35498 0.36249,-0.36249 0.70577,-0.76621 1.02978,-1.20703 0.32401,-0.44082 0.62903,-0.91934 0.9126,-1.43262 0.28357,-0.51328 0.5469,-1.06074 0.78809,-1.64062 0.24118,-0.57988 0.45939,-1.19189 0.65625,-1.83252 0.19685,-0.64063 0.37092,-1.30986 0.52148,-2.00537 0.15056,-0.69551 0.27853,-1.41758 0.38086,-2.16211 0.10233,-0.74453 0.17931,-1.51211 0.23145,-2.29981 0.0521,-0.78769 0.0791,-1.59492 0.0791,-2.41992 0,-0.57499 0.012,-1.10058 0.0659,-1.62597 0.0539,-0.52539 0.14931,-1.05088 0.31495,-1.62745 0.16563,-0.57656 0.40164,-1.20361 0.73681,-1.93212 0.33517,-0.72852 0.7705,-1.55879 1.33301,-2.54004 0.56251,-0.98126 1.25292,-2.11348 2.10059,-3.44825 0.84766,-1.33476 1.85185,-2.87207 3.04248,-4.66113 2.38126,-3.57812 5.50647,-8.16506 9.60644,-14.16504 2.39999,-3.53748 4.55607,-6.73663 6.49805,-9.65185 1.94198,-2.91522 3.67042,-5.5465 5.21338,-7.95117 1.54296,-2.40468 2.9001,-4.58155 4.10303,-6.58741 1.20292,-2.00585 2.25097,-3.84033 3.17285,-5.55908 0.92187,-1.71875 1.71865,-3.32285 2.41845,-4.86621 0.69981,-1.54336 1.30313,-3.02617 1.83985,-4.50586 0.53671,-1.47968 1.00586,-2.95616 1.43847,-4.48389 0.43262,-1.52773 0.82833,-3.10694 1.21582,-4.79443 0.45,-1.97499 0.80599,-3.6745 1.08106,-5.28076 0.13753,-0.80313 0.25455,-1.58388 0.35303,-2.36279 0.0985,-0.77892 0.17915,-1.55693 0.2417,-2.35694 0.12508,-1.60001 0.18157,-3.28642 0.18164,-5.24267 6e-5,-1.95626 -0.0567,-4.18195 -0.15674,-6.85694 -0.1,-2.69998 -0.21297,-4.93157 -0.36768,-6.88623 -0.0773,-0.97733 -0.16444,-1.88498 -0.2666,-2.74804 -0.10216,-0.86307 -0.21864,-1.68166 -0.35303,-2.47852 -0.13438,-0.79686 -0.28739,-1.57238 -0.46142,-2.35107 -0.17404,-0.7787 -0.36923,-1.56008 -0.59033,-2.36866 -0.44221,-1.61716 -0.98614,-3.3422 -1.66114,-5.36718 -0.58124,-1.74375 -1.21302,-3.45796 -1.89258,-5.14161 -0.67955,-1.68364 -1.40664,-3.33652 -2.18115,-4.95703 -0.7745,-1.62051 -1.59632,-3.20932 -2.4624,-4.76367 -0.86608,-1.55435 -1.77619,-3.07489 -2.73047,-4.56006 -0.95428,-1.48516 -1.95209,-2.9347 -2.99121,-4.34765 -1.03912,-1.41296 -2.11964,-2.78876 -3.24023,-4.12647 -1.12059,-1.33771 -2.28178,-2.63704 -3.48047,-3.89648 -1.19869,-1.25944 -2.43557,-2.47958 -3.70899,-3.65772 -1.27342,-1.17814 -2.58246,-2.31487 -3.92724,-3.40869 -1.34479,-1.09381 -2.72541,-2.14442 -4.13819,-3.15088 -1.41277,-1.00646 -2.85853,-1.9682 -4.33593,-2.88428 -1.4774,-0.91607 -2.98625,-1.78621 -4.52491,-2.60888 -1.53865,-0.82267 -3.10707,-1.59848 -4.70361,-2.32471 -1.59654,-0.72623 -3.22101,-1.40351 -4.87207,-2.03027 -1.65106,-0.62677 -3.32806,-1.20278 -5.03027,-1.72705 -1.70221,-0.52427 -3.4297,-0.9963 -5.17969,-1.41504 -1.425,-0.3375 -2.93341,-0.63328 -4.49561,-0.88623 -1.5622,-0.25295 -3.17849,-0.46336 -4.8208,-0.63135 -1.64231,-0.16799 -3.31075,-0.29383 -4.97607,-0.37647 -1.66533,-0.0826 -3.32725,-0.12177 -4.9585,-0.11865 z m -3.44971,7.01367 v 30 30 l -4.00048,-2.00097 c -0.6625,-0.3375 -1.36039,-0.6551 -2.08008,-0.94922 -0.7197,-0.29412 -1.46139,-0.56478 -2.20899,-0.81006 -0.7476,-0.24528 -1.50231,-0.46527 -2.24853,-0.65625 -0.74622,-0.19098 -1.48318,-0.35219 -2.19873,-0.4834 -0.71555,-0.13121 -1.40837,-0.23139 -2.06397,-0.29736 -0.65559,-0.066 -1.27495,-0.0985 -1.8413,-0.0937 -0.56636,0.005 -1.08002,0.0466 -1.52784,0.12744 -0.44782,0.0809 -0.82939,0.20078 -1.12939,0.36328 -0.3,0.15 -0.55654,0.33758 -0.76904,0.5625 -0.2125,0.22492 -0.38038,0.48673 -0.50538,0.78662 -0.125,0.29989 -0.20712,0.63729 -0.24462,1.01221 -0.0375,0.37492 -0.031,0.78779 0.019,1.23779 0.0375,0.2875 0.0808,0.54588 0.13916,0.7793 0.0584,0.23342 0.13242,0.44146 0.22851,0.63135 0.0961,0.18988 0.21417,0.36166 0.36475,0.51855 0.15058,0.15689 0.33331,0.29917 0.55518,0.4336 0.22187,0.13442 0.48399,0.25981 0.79394,0.38232 0.30996,0.12251 0.66768,0.24215 1.08252,0.36328 0.82968,0.24227 1.88585,0.49248 3.23584,0.79248 1.075,0.25 2.07555,0.5255 3.01611,0.83643 0.94056,0.31093 1.82128,0.65801 2.6587,1.05175 0.83741,0.39374 1.63092,0.83312 2.39648,1.33155 0.76556,0.49842 1.50303,1.05518 2.22803,1.68017 l 4.10009,3.60059 v 10.39893 c 0,2.84997 -0.0502,5.4498 -0.11279,7.3374 -0.0626,1.8876 -0.1375,3.06299 -0.1875,3.06299 -0.1,0 -0.57524,-0.20003 -1.26269,-0.5127 -0.68745,-0.31267 -1.58711,-0.73799 -2.53711,-1.18799 -0.5375,-0.275 -1.18098,-0.52824 -1.89991,-0.75732 -0.71892,-0.22908 -1.51282,-0.43343 -2.35107,-0.61231 -0.83825,-0.17887 -1.72074,-0.33265 -2.61621,-0.45703 -0.89547,-0.12437 -1.80472,-0.22006 -2.69531,-0.28564 -0.89059,-0.0656 -1.76332,-0.10004 -2.58692,-0.10254 -0.82359,-0.002 -1.59797,0.0274 -2.29248,0.0923 -0.6945,0.0649 -1.30871,0.16375 -1.81201,0.3003 -0.25165,0.0683 -0.47576,0.14591 -0.66797,0.23291 -0.19221,0.087 -0.35254,0.18379 -0.47754,0.29004 -0.24999,0.19999 -0.46708,0.4376 -0.65185,0.70166 -0.18478,0.26405 -0.3367,0.55508 -0.45703,0.86132 -0.12033,0.30625 -0.20848,0.62706 -0.26514,0.95362 -0.0567,0.32655 -0.0824,0.65791 -0.0762,0.98291 0.006,0.32499 0.043,0.64473 0.11133,0.94629 0.0683,0.30155 0.16769,0.58603 0.29736,0.84228 0.12967,0.25625 0.29025,0.4833 0.48047,0.67236 0.19022,0.18907 0.41064,0.33946 0.66064,0.43946 0.45,0.15 1.3251,0.30044 2.3877,0.41308 1.0626,0.11265 2.31271,0.1875 3.51269,0.1875 0.6875,0 1.34737,0.0225 1.98194,0.0674 0.63456,0.0449 1.24424,0.11148 1.83252,0.20361 0.58827,0.0921 1.15499,0.20983 1.70361,0.35156 0.54862,0.14173 1.07814,0.30877 1.59375,0.50244 0.51561,0.19368 1.01661,0.41267 1.50586,0.66065 0.48925,0.24798 0.96749,0.52447 1.43701,0.8291 0.46952,0.30463 0.93077,0.63832 1.38721,1.00195 0.45644,0.36364 0.90791,0.75714 1.35791,1.18213 l 2.6997,2.6001 v 29.30127 29.2998 h -14.90039 c -3.59997,0 -6.34404,-0.006 -8.45654,-0.0483 -1.05625,-0.0211 -1.95439,-0.051 -2.72314,-0.0937 -0.76875,-0.0428 -1.40781,-0.098 -1.94532,-0.16992 -0.5375,-0.0719 -0.97343,-0.16112 -1.33593,-0.26953 -0.36251,-0.10841 -0.65127,-0.23729 -0.89502,-0.38965 -0.24376,-0.15235 -0.44277,-0.32802 -0.62403,-0.53174 -0.18125,-0.20371 -0.34502,-0.43476 -0.52002,-0.69726 -0.41249,-0.5875 -0.74199,-1.17432 -0.99023,-1.75928 -0.12412,-0.29248 -0.22844,-0.58509 -0.31201,-0.87598 -0.0836,-0.29088 -0.14707,-0.58145 -0.19043,-0.87011 -0.0434,-0.28867 -0.0668,-0.57552 -0.0703,-0.86133 -0.004,-0.28581 0.0138,-0.57022 0.0498,-0.85254 0.036,-0.28232 0.0918,-0.56263 0.16699,-0.84082 0.0752,-0.27819 0.17013,-0.55421 0.28418,-0.82764 0.22812,-0.54686 0.53263,-1.08292 0.91407,-1.60693 0.38143,-0.52401 0.83907,-1.03614 1.37109,-1.53223 0.53202,-0.49608 1.13946,-0.97686 1.81933,-1.43994 0.67988,-0.46308 1.43233,-0.90801 2.25733,-1.33301 0.6625,-0.34374 1.32486,-0.73427 1.98193,-1.16455 0.65708,-0.43027 1.3087,-0.90087 1.95264,-1.40478 0.64394,-0.50391 1.27974,-1.04082 1.90283,-1.60547 0.62309,-0.56465 1.2336,-1.15703 1.82813,-1.76953 0.59452,-0.61251 1.17319,-1.24511 1.73144,-1.89258 0.55825,-0.64747 1.09561,-1.30946 1.60986,-1.979 0.51426,-0.66954 1.00523,-1.34716 1.46778,-2.02588 0.46254,-0.67872 0.89766,-1.3582 1.30078,-2.03321 0.40312,-0.67501 0.77437,-1.34549 1.11035,-2.0039 0.33598,-0.65841 0.63682,-1.30468 0.89795,-1.9336 0.26113,-0.62891 0.48208,-1.24012 0.66064,-1.82666 0.17857,-0.58653 0.31456,-1.14891 0.40284,-1.68017 0.0883,-0.53126 0.12983,-1.03105 0.12011,-1.49414 -0.01,-0.46309 -0.0706,-0.88945 -0.18603,-1.27149 -0.11543,-0.38203 -0.28677,-0.71972 -0.51563,-1.00781 -0.11442,-0.14404 -0.24248,-0.2759 -0.38671,-0.39404 -0.14424,-0.11814 -0.30401,-0.22285 -0.47901,-0.31348 -0.35,-0.1875 -0.67687,-0.33436 -0.98584,-0.43652 -0.30897,-0.10217 -0.60071,-0.15984 -0.88037,-0.16846 -0.27966,-0.009 -0.54652,0.0314 -0.80859,0.12451 -0.26208,0.0931 -0.51869,0.2393 -0.77491,0.44239 -0.25621,0.20308 -0.51282,0.4639 -0.7749,0.78515 -0.26207,0.32126 -0.52893,0.70374 -0.80859,1.15137 -0.55932,0.89526 -1.16622,2.05098 -1.86621,3.50098 -0.35,0.73749 -0.79306,1.51589 -1.30811,2.31298 -0.51505,0.79709 -1.10213,1.61246 -1.7373,2.42578 -0.63518,0.81332 -1.31844,1.62495 -2.02881,2.41114 -0.71038,0.78618 -1.44783,1.5475 -2.18848,2.26318 -0.74065,0.71568 -1.48591,1.38452 -2.21191,1.98633 -0.726,0.60181 -1.4327,1.13599 -2.09912,1.58057 -0.66643,0.44457 -1.29257,0.80046 -1.8545,1.04443 -0.28096,0.12198 -0.54606,0.21608 -0.79248,0.27978 -0.24641,0.0637 -0.47344,0.0967 -0.67968,0.0967 -0.4625,0 -0.96593,-0.0347 -1.49854,-0.0996 -0.53261,-0.0649 -1.09386,-0.15932 -1.67431,-0.28125 -0.58046,-0.12192 -1.17961,-0.27122 -1.78565,-0.44238 -0.60604,-0.17115 -1.21877,-0.36458 -1.82812,-0.57715 -0.60936,-0.21256 -1.21574,-0.44378 -1.80616,-0.68994 -0.59041,-0.24615 -1.16612,-0.50737 -1.71533,-0.77929 -0.5492,-0.27193 -1.07139,-0.55535 -1.55713,-0.84522 -0.48573,-0.28987 -0.93447,-0.58623 -1.33447,-0.88623 -0.41875,-0.31875 -0.81065,-0.66031 -1.17627,-1.021 -0.36562,-0.36069 -0.70557,-0.74082 -1.01807,-1.13672 -0.31249,-0.39589 -0.59756,-0.80757 -0.85693,-1.23193 -0.25937,-0.42435 -0.49249,-0.86056 -0.69873,-1.30664 -0.20624,-0.44608 -0.38595,-0.90124 -0.53906,-1.3623 -0.15312,-0.46107 -0.27941,-0.92815 -0.3794,-1.39746 -0.1,-0.46932 -0.17286,-0.94128 -0.21972,-1.41211 -0.0469,-0.47084 -0.0678,-0.94065 -0.0615,-1.40625 0.006,-0.46561 0.0388,-0.92771 0.0981,-1.38135 0.0594,-0.45365 0.1453,-0.89953 0.25781,-1.33447 0.11251,-0.43495 0.25185,-0.85905 0.41748,-1.26856 0.16563,-0.4095 0.35839,-0.80333 0.57715,-1.18066 0.21875,-0.37733 0.46347,-0.73825 0.73535,-1.07666 0.27188,-0.33842 0.57002,-0.65499 0.89502,-0.94776 0.325,-0.29276 0.67656,-0.56089 1.05469,-0.80127 0.37812,-0.24037 0.78311,-0.45303 1.21435,-0.63427 0.9,-0.375 1.58113,-0.64986 2.15918,-0.79834 0.28903,-0.0743 0.55229,-0.11687 0.8042,-0.12452 0.25191,-0.008 0.49312,0.0194 0.73682,0.085 0.2437,0.0656 0.48998,0.16946 0.75439,0.31494 0.26441,0.14548 0.54584,0.33342 0.85987,0.56543 0.62804,0.46401 1.38477,1.10703 2.38476,1.95703 0.5375,0.46249 1.04198,0.87706 1.51758,1.24365 0.4756,0.36659 0.92214,0.68536 1.34326,0.95801 0.42112,0.27264 0.81687,0.49903 1.19092,0.67969 0.37405,0.18065 0.72614,0.31514 1.06055,0.40576 0.3344,0.0906 0.65143,0.13663 0.95361,0.13916 0.30218,0.003 0.58982,-0.038 0.86719,-0.12159 0.27736,-0.0836 0.54422,-0.21015 0.8042,-0.37792 0.25997,-0.16778 0.51318,-0.37696 0.76318,-0.62696 0.25,-0.25 0.45917,-0.50022 0.62695,-0.75293 0.16778,-0.2527 0.29433,-0.50815 0.37793,-0.76904 0.0836,-0.26089 0.12411,-0.52672 0.12158,-0.80127 -0.003,-0.27455 -0.0485,-0.55739 -0.13916,-0.85107 -0.0906,-0.29369 -0.2251,-0.5987 -0.40576,-0.917 -0.18065,-0.31829 -0.40704,-0.65063 -0.67968,-0.99902 -0.27265,-0.34839 -0.59142,-0.71322 -0.95801,-1.09717 -0.3666,-0.38395 -0.78116,-0.78643 -1.24366,-1.21142 -0.48749,-0.4375 -0.91903,-0.84628 -1.29638,-1.23926 -0.37736,-0.39299 -0.70076,-0.77068 -0.97266,-1.14258 -0.2719,-0.3719 -0.49244,-0.73903 -0.66357,-1.11328 -0.17113,-0.37426 -0.29264,-0.75572 -0.36768,-1.15576 -0.075,-0.40004 -0.10279,-0.81784 -0.0864,-1.26709 0.0164,-0.44926 0.0771,-0.92976 0.18017,-1.45166 0.1031,-0.5219 0.24846,-1.08563 0.4336,-1.70362 0.18513,-0.61798 0.40986,-1.28985 0.67236,-2.02734 0.2,-0.55 0.35888,-1.07726 0.479,-1.57764 0.12013,-0.50037 0.20165,-0.97415 0.24463,-1.41943 0.043,-0.44528 0.0476,-0.86186 0.0161,-1.24658 -0.0314,-0.38473 -0.099,-0.73745 -0.20215,-1.05615 -0.10312,-0.31871 -0.24103,-0.60239 -0.41309,-0.84961 -0.17206,-0.24723 -0.37843,-0.45814 -0.6167,-0.62842 -0.23827,-0.17028 -0.5083,-0.30031 -0.81006,-0.38819 -0.30175,-0.0879 -0.63506,-0.1333 -0.99756,-0.1333 -0.32499,0 -0.64338,0.0453 -0.95507,0.13477 -0.3117,0.0894 -0.61723,0.22338 -0.91407,0.3999 -0.29683,0.17652 -0.58529,0.39497 -0.86572,0.65625 -0.28042,0.26128 -0.552,0.56451 -0.81445,0.90821 -0.26246,0.34369 -0.51587,0.72905 -0.75879,1.15283 -0.24293,0.42377 -0.47543,0.88568 -0.69727,1.3872 -0.22184,0.50153 -0.43361,1.04173 -0.63281,1.61866 -0.19919,0.57693 -0.38604,1.19131 -0.56103,1.84131 -0.25,0.92498 -0.48792,1.68192 -0.74268,2.31005 -0.12738,0.31407 -0.25874,0.59599 -0.39844,0.85108 -0.13969,0.25508 -0.28735,0.48222 -0.44678,0.68847 -0.15942,0.20626 -0.33052,0.39052 -0.51708,0.55811 -0.18657,0.16758 -0.38825,0.31943 -0.60938,0.4585 -0.44226,0.27813 -0.96143,0.50888 -1.58643,0.73388 -1.69995,0.6 -4.5999,1.70088 -6.3999,2.40088 -0.725,0.3 -1.31203,0.5191 -1.83545,0.65186 -0.26171,0.0664 -0.50821,0.11048 -0.74707,0.1333 -0.23885,0.0228 -0.47022,0.0234 -0.70459,10e-4 -0.23436,-0.0219 -0.47101,-0.0655 -0.71924,-0.1333 -0.24823,-0.0678 -0.50762,-0.15905 -0.78808,-0.27392 -0.56092,-0.22974 -1.20538,-0.55499 -2.00537,-0.97998 -0.6625,-0.35 -1.29035,-0.73553 -1.88233,-1.1543 -0.59197,-0.41877 -1.14758,-0.87077 -1.66552,-1.35205 -0.51795,-0.48128 -0.99809,-0.99176 -1.43848,-1.5293 -0.4404,-0.53754 -0.84183,-1.10142 -1.20117,-1.68896 -0.35934,-0.58755 -0.67738,-1.19977 -0.95215,-1.83106 -0.27477,-0.63129 -0.50618,-1.28239 -0.69287,-1.95117 -0.18669,-0.66878 -0.32824,-1.35516 -0.42334,-2.05518 -0.0951,-0.70001 -0.14356,-1.41367 -0.14356,-2.13867 0,-0.96249 0.0192,-1.82805 0.0659,-2.60888 0.0467,-0.78084 0.1212,-1.47719 0.23291,-2.10059 0.11171,-0.6234 0.26046,-1.17387 0.45557,-1.66406 0.1951,-0.49019 0.43556,-0.91958 0.73242,-1.30078 0.29686,-0.38121 0.64943,-0.71431 1.06641,-1.01075 0.41698,-0.29644 0.89913,-0.55657 1.45459,-0.79248 0.55545,-0.2359 1.18467,-0.44787 1.89697,-0.64746 0.7123,-0.19959 1.50752,-0.38672 2.39502,-0.57422 0.84999,-0.175 1.90028,-0.46311 3.06738,-0.83496 1.1671,-0.37185 2.45041,-0.82787 3.76904,-1.34033 1.31863,-0.51246 2.67246,-1.0804 3.97705,-1.67725 1.3046,-0.59684 2.56056,-1.22217 3.68555,-1.84716 l 8.40088,-4.40039 3.19922,2.50048 c 0.95,0.725 1.73198,1.28072 2.40234,1.67286 0.33518,0.19606 0.64177,0.3512 0.92871,0.46582 0.28695,0.11461 0.55398,0.18978 0.80713,0.22412 0.25316,0.0343 0.49275,0.0286 0.72657,-0.0161 0.23381,-0.0448 0.46101,-0.12927 0.68994,-0.25195 0.22893,-0.12268 0.45877,-0.28397 0.69726,-0.4834 0.23849,-0.19943 0.48604,-0.43691 0.74854,-0.71191 0.28749,-0.2875 0.53652,-0.54727 0.74121,-0.79102 0.20468,-0.24375 0.36504,-0.4708 0.47754,-0.6958 0.11249,-0.225 0.17656,-0.44698 0.1875,-0.67822 0.0109,-0.23125 -0.0318,-0.47286 -0.13184,-0.73535 -0.1,-0.2625 -0.25723,-0.54698 -0.47754,-0.86573 -0.22031,-0.31874 -0.50254,-0.6708 -0.85254,-1.0708 -0.69999,-0.79998 -1.66934,-1.788 -2.94433,-3.06298 l -4.69922,-4.59961 0.59912,-5.80078 c 0.0875,-0.75 0.1499,-1.43968 0.18603,-2.07129 0.0361,-0.63162 0.0458,-1.20532 0.0278,-1.72559 -0.018,-0.52027 -0.0629,-0.98589 -0.1377,-1.40186 -0.0748,-0.41596 -0.17911,-0.7814 -0.31348,-1.10009 -0.13437,-0.3187 -0.2999,-0.59185 -0.49658,-0.82032 -0.19667,-0.22846 -0.4253,-0.41283 -0.68701,-0.5581 -0.26171,-0.14527 -0.55528,-0.25022 -0.88476,-0.31934 -0.32949,-0.0691 -0.69425,-0.10254 -1.09424,-0.10254 -0.375,0 -0.72453,0.0485 -1.0503,0.14649 -0.32577,0.098 -0.62716,0.24544 -0.90527,0.44385 -0.27811,0.19841 -0.5341,0.44739 -0.76611,0.74853 -0.23201,0.30114 -0.44095,0.65433 -0.62842,1.06055 -0.18748,0.40621 -0.35207,0.86624 -0.49658,1.37988 -0.14451,0.51364 -0.26897,1.08167 -0.37207,1.70508 -0.10311,0.62341 -0.18576,1.30207 -0.24903,2.0376 -0.0633,0.73553 -0.10683,1.52744 -0.13183,2.37744 l -0.0996,6.60058 -5.2002,3.09961 c -0.74999,0.4625 -1.55361,0.91661 -2.38916,1.35645 -0.83554,0.43984 -1.70283,0.86543 -2.58252,1.26855 -0.87969,0.40313 -1.77187,0.78438 -2.65429,1.13672 -0.88243,0.35235 -1.75488,0.67637 -2.59864,0.96387 -0.84375,0.2875 -1.6577,0.53848 -2.42138,0.74707 -0.76368,0.20859 -1.47744,0.37363 -2.11963,0.48926 -0.64219,0.11562 -1.21406,0.18183 -1.69336,0.19043 -0.23965,0.004 -0.4563,-0.006 -0.64746,-0.0308 -0.19116,-0.0251 -0.35616,-0.0653 -0.49365,-0.12159 -0.2,-0.075 -0.44966,-0.28107 -0.73096,-0.58886 -0.28131,-0.3078 -0.59485,-0.71702 -0.91992,-1.19825 -0.32508,-0.48122 -0.66186,-1.03507 -0.99317,-1.63037 -0.3313,-0.59529 -0.65654,-1.23232 -0.95654,-1.88232 -0.3125,-0.70625 -0.59109,-1.42803 -0.83643,-2.16211 -0.24533,-0.73408 -0.45742,-1.48028 -0.6372,-2.23535 -0.17978,-0.75508 -0.32655,-1.51885 -0.44239,-2.28809 -0.11583,-0.76923 -0.20137,-1.54375 -0.25488,-2.32031 -0.0535,-0.77656 -0.0761,-1.55498 -0.0688,-2.33203 0.007,-0.77705 0.045,-1.55254 0.11133,-2.32324 0.0663,-0.7707 0.16183,-1.53643 0.28565,-2.29395 0.12381,-0.75752 0.27587,-1.50664 0.45556,-2.24414 0.1797,-0.7375 0.38713,-1.46465 0.6211,-2.17529 0.23397,-0.71065 0.49413,-1.40606 0.78076,-2.08301 0.28663,-0.67695 0.59982,-1.33526 0.9375,-1.97168 0.33768,-0.63642 0.6998,-1.25078 1.08691,-1.83984 0.38712,-0.58906 0.79846,-1.15264 1.2334,-1.6875 0.43494,-0.53487 0.89433,-1.04083 1.37549,-1.51465 0.48115,-0.47383 0.9845,-0.91534 1.51025,-1.32129 0.52576,-0.40596 1.07335,-0.77618 1.64209,-1.10742 0.6,-0.35 1.21905,-0.66817 1.82373,-0.94483 0.60469,-0.27665 1.19502,-0.5115 1.73877,-0.69287 0.54375,-0.18137 1.04033,-0.30938 1.45752,-0.37353 0.41719,-0.0642 0.75498,-0.0647 0.97998,0.0102 0.1,0.0375 0.21571,0.11424 0.34424,0.22559 0.12853,0.11134 0.27029,0.25699 0.42188,0.43359 0.30317,0.35319 0.64671,0.82901 1.00927,1.3916 0.36256,0.56259 0.7439,1.21283 1.12207,1.91602 0.37817,0.70318 0.75303,1.45889 1.10303,2.23388 0.55,1.25 0.99348,2.21805 1.38867,2.96338 0.1976,0.37267 0.38338,0.68983 0.56397,0.95801 0.18059,0.26818 0.35662,0.48837 0.53467,0.6665 0.17804,0.17814 0.35788,0.31493 0.54785,0.41748 0.18996,0.10256 0.3901,0.17099 0.60644,0.21241 0.21635,0.0414 0.44887,0.0551 0.70606,0.0498 0.25719,-0.005 0.53857,-0.0299 0.85107,-0.0674 0.525,-0.05 0.96309,-0.13125 1.32715,-0.25781 0.18203,-0.0633 0.34512,-0.13789 0.49219,-0.22559 0.14707,-0.0877 0.27695,-0.18906 0.39258,-0.30469 0.11562,-0.11562 0.21699,-0.24551 0.30468,-0.39258 0.0877,-0.14707 0.16231,-0.31015 0.22559,-0.49218 0.12656,-0.36407 0.20781,-0.80215 0.25781,-1.32715 0.05,-0.3875 0.0208,-0.87412 -0.0747,-1.43115 -0.0955,-0.55704 -0.25698,-1.18408 -0.47021,-1.85596 -0.21324,-0.67188 -0.47896,-1.38759 -0.78223,-2.11963 -0.30326,-0.73204 -0.64371,-1.48026 -1.00927,-2.21777 -0.36557,-0.73751 -0.75563,-1.46503 -1.15577,-2.15332 -0.40013,-0.6883 -0.8103,-1.33749 -1.21728,-1.92188 -0.40699,-0.58438 -0.81067,-1.10351 -1.19678,-1.5293 -0.3861,-0.42578 -0.75527,-0.75869 -1.09277,-0.97119 -0.21875,-0.13124 -0.41626,-0.28606 -0.5918,-0.46289 -0.17554,-0.17683 -0.32949,-0.375 -0.46289,-0.59326 -0.1334,-0.21826 -0.24605,-0.45637 -0.33838,-0.71191 -0.0923,-0.25555 -0.16445,-0.52871 -0.2168,-0.81739 -0.0523,-0.28867 -0.0847,-0.59347 -0.0981,-0.91113 -0.0134,-0.31765 -0.007,-0.64921 0.0176,-0.9917 0.0488,-0.68497 0.17245,-1.41444 0.36621,-2.17383 0.19376,-0.75938 0.45654,-1.54755 0.78662,-2.34814 0.33008,-0.80059 0.72724,-1.61425 1.18506,-2.42285 0.45782,-0.8086 0.97724,-1.61309 1.5542,-2.39649 0.57695,-0.78339 1.21094,-1.54551 1.89844,-2.2705 0.54999,-0.5875 1.08778,-1.12931 1.61865,-1.62891 0.53086,-0.4996 1.05418,-0.95685 1.57763,-1.37402 0.52345,-0.41718 1.04696,-0.79504 1.57471,-1.13526 0.52775,-0.34022 1.06024,-0.64239 1.60401,-0.91113 0.54376,-0.26874 1.09841,-0.50333 1.66992,-0.70606 0.5715,-0.20272 1.16004,-0.37344 1.77099,-0.51562 0.61096,-0.14218 1.24511,-0.25567 1.90723,-0.34277 0.66212,-0.0871 1.35215,-0.14854 2.07715,-0.18604 l 4.69922,-0.20068 0.70019,4.5 c 0.2,1.24998 0.4751,2.64997 0.7749,3.9126 0.14991,0.63131 0.30525,1.22827 0.46143,1.75488 0.15618,0.52661 0.31289,0.98301 0.46289,1.33301 0.175,0.49999 0.28731,0.9497 0.32959,1.3872 0.0211,0.21875 0.0252,0.43467 0.0103,0.65186 -0.015,0.21719 -0.0495,0.43564 -0.10254,0.66064 -0.10612,0.45 -0.28937,0.92588 -0.55957,1.46338 -0.27021,0.5375 -0.62667,1.13692 -1.07666,1.83692 -0.425,0.64999 -0.82361,1.33185 -1.19239,2.03027 -0.36877,0.69842 -0.70737,1.41409 -1.01367,2.13281 -0.30629,0.71872 -0.57982,1.43949 -0.81738,2.15039 -0.23756,0.7109 -0.43949,1.41098 -0.60205,2.08594 -0.16256,0.67496 -0.28637,1.32562 -0.36768,1.93652 -0.0813,0.61091 -0.12046,1.18196 -0.11426,1.70069 0.006,0.51872 0.0582,0.98439 0.15821,1.38281 0.05,0.19921 0.11143,0.38252 0.18603,0.54639 0.0746,0.16386 0.16221,0.30859 0.26221,0.43359 0.2,0.2375 0.41962,0.44902 0.65478,0.63281 0.23517,0.1838 0.48622,0.33983 0.74561,0.46875 0.25939,0.12892 0.52713,0.23036 0.7998,0.30322 0.27268,0.0729 0.54969,0.11766 0.82471,0.13331 0.27503,0.0156 0.54949,0.002 0.81592,-0.041 0.26643,-0.0428 0.52508,-0.11447 0.77197,-0.2168 0.24689,-0.10233 0.48085,-0.23536 0.69727,-0.39843 0.21641,-0.16308 0.41533,-0.35655 0.59033,-0.58155 0.125,-0.15 0.26878,-0.39375 0.42041,-0.70312 0.15163,-0.30938 0.31095,-0.68467 0.46728,-1.09717 0.31267,-0.825 0.61299,-1.79971 0.81299,-2.69971 0.125,-0.62499 0.31106,-1.24963 0.54932,-1.86621 0.23826,-0.61658 0.52845,-1.22504 0.86279,-1.8164 0.33435,-0.59137 0.71323,-1.16597 1.12647,-1.71534 0.41324,-0.54936 0.86098,-1.07387 1.33593,-1.56445 0.47496,-0.49058 0.97612,-0.94731 1.49561,-1.3623 0.51949,-0.415 1.05716,-0.78774 1.604,-1.11036 0.54685,-0.32262 1.10266,-0.59513 1.65967,-0.80859 0.55701,-0.21346 1.11553,-0.36807 1.66553,-0.45557 1.74999,-0.27499 3.12538,-0.50634 4.21289,-0.72363 1.08751,-0.21728 1.88729,-0.41978 2.4873,-0.63867 0.30001,-0.10944 0.54931,-0.22328 0.76026,-0.34424 0.21094,-0.12096 0.38359,-0.24975 0.52734,-0.38965 0.14376,-0.13989 0.25898,-0.29079 0.35742,-0.45703 0.0984,-0.16624 0.17989,-0.34785 0.25489,-0.54785 0.075,-0.2 0.11919,-0.45663 0.1333,-0.74561 0.0141,-0.28898 -0.002,-0.61075 -0.0454,-0.94189 -0.0437,-0.33114 -0.11548,-0.67108 -0.21387,-0.99756 -0.0984,-0.32648 -0.22354,-0.63906 -0.37353,-0.91406 -0.125,-0.2375 -0.2459,-0.44629 -0.37207,-0.62988 -0.12618,-0.1836 -0.25733,-0.3417 -0.40577,-0.47608 -0.14844,-0.13437 -0.31357,-0.2456 -0.50537,-0.33545 -0.1918,-0.0898 -0.41025,-0.15801 -0.6665,-0.20801 -0.25625,-0.05 -0.55029,-0.0818 -0.89209,-0.0967 -0.3418,-0.0148 -0.73223,-0.0127 -1.18067,0.003 -0.89687,0.0312 -2.02755,0.11817 -3.47753,0.24317 l -6.3003,0.59912 -1.1001,-3.69873 c -0.32498,-1.25 -0.5691,-2.24437 -0.72216,-3.0835 -0.0765,-0.41956 -0.12963,-0.79937 -0.15967,-1.15429 -0.03,-0.35493 -0.0364,-0.68482 -0.0176,-1.00049 0.0188,-0.31567 0.0619,-0.61813 0.13184,-0.91992 0.07,-0.3018 0.16657,-0.60222 0.29004,-0.91553 0.24692,-0.62662 0.60312,-1.30197 1.07812,-2.12695 0.3125,-0.5125 0.6927,-1.01759 1.1294,-1.50879 0.43669,-0.49121 0.93011,-0.96817 1.4707,-1.42676 0.54059,-0.45859 1.12778,-0.89786 1.75195,-1.3125 0.62418,-0.41464 1.28569,-0.80518 1.97315,-1.16455 0.68745,-0.35937 1.40092,-0.68868 2.13134,-0.98145 0.73043,-0.29277 1.47787,-0.54834 2.23096,-0.76318 0.75309,-0.21484 1.51213,-0.38858 2.26758,-0.51416 0.75544,-0.12558 1.50665,-0.20352 2.24414,-0.22852 z m 9.49952,0.26075 c 0.0941,-0.001 0.19404,0.0131 0.30029,0.0381 0.45,0.15 1.42563,0.34971 2.63818,0.5625 1.21255,0.21279 2.66204,0.43867 4.06201,0.63867 1.15,0.15625 2.30885,0.35655 3.47315,0.59913 1.1643,0.24257 2.33399,0.52754 3.50684,0.85253 1.17284,0.325 2.34879,0.69073 3.52441,1.09424 1.17562,0.40352 2.3503,0.84463 3.52295,1.32276 1.17264,0.47812 2.34293,0.99219 3.50683,1.54101 1.16391,0.54883 2.32228,1.13194 3.47168,1.74756 1.1494,0.61562 2.28981,1.26387 3.41895,1.94238 1.12914,0.67852 2.24699,1.38799 3.3501,2.12549 1.10311,0.7375 2.19235,1.50284 3.26367,2.29541 1.07132,0.79258 2.12443,1.6128 3.1582,2.45654 1.03378,0.84375 2.04762,1.71202 3.03809,2.60303 0.99046,0.89101 1.95753,1.80489 2.89892,2.73926 0.9414,0.93437 1.85709,1.88848 2.74366,2.8623 0.88656,0.97383 1.74483,1.9672 2.5708,2.97657 0.82597,1.00937 1.61929,2.03516 2.3789,3.07617 0.75962,1.04101 1.48487,2.09678 2.17237,3.16553 0.86874,1.35624 1.69125,2.73853 2.46679,4.14404 0.77554,1.4055 1.50371,2.83459 2.18555,4.2832 0.68185,1.44862 1.31664,2.91628 1.9043,4.40186 0.58766,1.48557 1.12859,2.98801 1.62158,4.50439 0.49299,1.51639 0.93811,3.04685 1.33594,4.58789 0.39782,1.54104 0.74811,3.0928 1.05029,4.65235 0.30218,1.55954 0.55715,3.12732 0.76318,4.69922 0.20604,1.57189 0.36374,3.14895 0.47315,4.72705 0.1094,1.5781 0.16935,3.15769 0.18164,4.73584 0.0123,1.57814 -0.0231,3.155 -0.1084,4.72705 -0.0853,1.57204 -0.21941,3.13942 -0.40283,4.69922 -0.18342,1.55979 -0.41673,3.11095 -0.69873,4.65234 -0.28201,1.54138 -0.61355,3.07253 -0.99463,4.58935 -0.38108,1.51683 -0.81135,3.01975 -1.29199,4.50586 -0.48065,1.48612 -1.01159,2.95553 -1.59229,4.40479 -0.5807,1.44926 -1.21133,2.87842 -1.89258,4.28467 -0.47499,0.94999 -1.36864,2.52442 -2.57812,4.5542 -1.20949,2.02978 -2.73452,4.51432 -4.47217,7.2832 -1.73765,2.76888 -3.68856,5.82247 -5.74805,8.98975 -2.05948,3.16727 -4.22784,6.44885 -6.40283,9.67382 l -15.89941,23.49903 -4.69922,0.30029 -4.70069,0.30029 v -42.49951 c 0,-9.97495 0.007,-17.62466 0.0425,-23.48877 0.036,-5.8641 0.10093,-9.94211 0.21972,-12.77344 0.0594,-1.41566 0.13231,-2.51978 0.22119,-3.37939 0.0889,-0.85961 0.19364,-1.47477 0.31787,-1.91309 0.0621,-0.21915 0.1301,-0.3941 0.20215,-0.5332 0.072,-0.1391 0.14873,-0.24345 0.23145,-0.31933 0.0827,-0.0759 0.17102,-0.12429 0.26513,-0.15381 0.0941,-0.0295 0.19405,-0.0395 0.3003,-0.0395 0.48749,0 0.99972,-0.0362 1.52783,-0.10401 0.52811,-0.0678 1.0716,-0.16707 1.62158,-0.29443 0.54999,-0.12736 1.10656,-0.2827 1.65967,-0.46143 0.55311,-0.17873 1.10314,-0.38015 1.64062,-0.60205 0.53749,-0.22189 1.06281,-0.46385 1.56592,-0.7207 0.50311,-0.25685 0.9841,-0.52938 1.43408,-0.81299 0.44999,-0.28361 0.86847,-0.57821 1.24659,-0.88037 0.37811,-0.30216 0.71592,-0.61182 1.00341,-0.92432 0.30625,-0.33124 0.59205,-0.66919 0.85694,-1.01367 0.26489,-0.34448 0.50879,-0.6957 0.73242,-1.05176 0.22363,-0.35606 0.42691,-0.71801 0.60938,-1.08398 0.18246,-0.36597 0.34346,-0.73613 0.48486,-1.11035 0.14139,-0.37423 0.26285,-0.75151 0.36328,-1.13233 0.10043,-0.38082 0.18068,-0.76415 0.24023,-1.1499 0.0596,-0.38575 0.0984,-0.77406 0.11719,-1.16309 0.0188,-0.38902 0.0175,-0.77977 -0.004,-1.17041 -0.0219,-0.39063 -0.065,-0.78128 -0.12744,-1.17187 -0.0625,-0.39059 -0.14462,-0.78153 -0.24756,-1.17041 -0.10295,-0.38888 -0.22582,-0.77611 -0.36914,-1.16162 -0.14333,-0.38551 -0.30712,-0.76796 -0.49073,-1.14844 -0.1836,-0.38048 -0.38705,-0.75854 -0.61084,-1.13232 -0.22378,-0.37379 -0.46708,-0.74346 -0.73095,-1.10889 -0.26388,-0.36544 -0.54868,-0.7271 -0.85254,-1.08252 -0.30386,-0.35542 -0.62745,-0.70508 -0.97119,-1.04883 -0.725,-0.725 -1.33785,-1.29357 -1.91748,-1.73877 -0.28982,-0.2226 -0.57064,-0.41511 -0.85401,-0.58008 -0.28336,-0.16497 -0.56888,-0.30192 -0.86572,-0.41748 -0.29684,-0.11555 -0.6058,-0.20837 -0.93604,-0.28271 -0.33023,-0.0744 -0.68137,-0.1315 -1.06494,-0.17285 -0.76713,-0.0827 -1.66123,-0.10694 -2.76123,-0.10694 -1.02499,0 -1.88774,0.0316 -2.64404,0.1128 -0.37815,0.0406 -0.72995,0.0932 -1.06201,0.16113 -0.33207,0.0679 -0.64479,0.15051 -0.94483,0.25049 -0.30003,0.1 -0.58658,0.21779 -0.86865,0.35449 -0.28207,0.1367 -0.55974,0.2921 -0.83789,0.47022 -0.5563,0.35622 -1.11817,0.80058 -1.74316,1.35058 -0.65,0.575 -1.1743,1.10015 -1.60401,1.6377 -0.21485,0.26877 -0.40624,0.5404 -0.57715,0.82324 -0.17091,0.28284 -0.32264,0.57663 -0.45703,0.88916 -0.13438,0.31253 -0.25213,0.64411 -0.35742,1.00195 -0.10528,0.35784 -0.19765,0.74139 -0.28125,1.16016 -0.1672,0.83754 -0.29834,1.81328 -0.42334,2.98828 l -0.59912,5.79932 h -5.2998 -5.40088 v -34.1001 c 0,-7.47653 0.005,-13.31556 0.0351,-17.86963 0.0303,-4.55407 0.0868,-7.82265 0.18604,-10.15723 0.0496,-1.16729 0.109,-2.10197 0.1831,-2.84619 0.0741,-0.74422 0.16174,-1.29898 0.26514,-1.70801 0.1034,-0.40902 0.22283,-0.67179 0.36035,-0.83349 0.0688,-0.0808 0.143,-0.1359 0.22119,-0.17139 0.0782,-0.0355 0.16079,-0.0516 0.24903,-0.0527 z" />
    <path
       id="rect345"
       style="fill:#ffffff;fill-rule:evenodd;stroke:none;stroke-width:11.25;stroke-miterlimit:9.1;paint-order:fill markers stroke;stop-color:#000000"
       d="m 301.14695,396.93938 v 4.80029 c 0,0.84999 0.0279,1.61513 0.0937,2.3042 0.0658,0.68906 0.16998,1.30194 0.3208,1.8457 0.0754,0.27188 0.16196,0.52617 0.2622,0.76465 0.10025,0.23848 0.21385,0.46093 0.34131,0.66797 0.12747,0.20704 0.26919,0.3996 0.42627,0.57715 0.15708,0.17754 0.32947,0.34071 0.51856,0.49072 0.18908,0.15001 0.39468,0.28574 0.61816,0.41016 0.22349,0.12442 0.46482,0.23759 0.7251,0.33838 0.52055,0.20157 1.11676,0.35731 1.79883,0.47607 0.68206,0.11876 1.45027,0.20038 2.31299,0.25195 0.86271,0.0516 1.82031,0.0733 2.88281,0.0733 1.47499,0 2.63788,-0.0194 3.58008,-0.0835 0.47109,-0.032 0.88729,-0.0753 1.25976,-0.1333 0.37247,-0.058 0.70068,-0.13056 0.99756,-0.22119 0.29688,-0.0906 0.56132,-0.19824 0.80566,-0.32813 0.24435,-0.12989 0.46924,-0.28124 0.68409,-0.45703 0.21485,-0.17578 0.42001,-0.37666 0.62841,-0.60498 0.20841,-0.22832 0.41954,-0.48447 0.64454,-0.77197 0.32499,-0.425 0.61824,-0.89301 0.87597,-1.39453 0.25773,-0.50152 0.4795,-1.0361 0.66065,-1.59229 0.18114,-0.55619 0.32224,-1.13511 0.41748,-1.72412 0.0952,-0.58901 0.14502,-1.18858 0.14502,-1.78857 v -3.90088 h -10.5 z" />
    <path
       id="path514"
       style="fill:#00dcdc;fill-opacity:1;fill-rule:evenodd;stroke:none;stroke-width:11.25;stroke-miterlimit:9.1;paint-order:fill markers stroke;stop-color:#000000"
       d="m 301.14695,396.93938 h 10.5 10.5 v 3.90088 c 0,0.59999 -0.0498,1.19956 -0.14502,1.78857 -0.0952,0.58901 -0.23634,1.16793 -0.41748,1.72412 -0.18115,0.55619 -0.40292,1.09077 -0.66065,1.59229 -0.25773,0.50152 -0.55098,0.96953 -0.87597,1.39453 -0.225,0.2875 -0.43613,0.54365 -0.64454,0.77197 -0.2084,0.22832 -0.41356,0.4292 -0.62841,0.60498 -0.21485,0.17579 -0.43974,0.32714 -0.68409,0.45703 -0.24434,0.12989 -0.50878,0.2375 -0.80566,0.32813 -0.29688,0.0906 -0.62509,0.16318 -0.99756,0.22119 -0.37247,0.058 -0.78867,0.10126 -1.25976,0.1333 -0.9422,0.0641 -2.10509,0.0835 -3.58008,0.0835 -1.0625,0 -2.0201,-0.0217 -2.88281,-0.0733 -0.86272,-0.0516 -1.63093,-0.13319 -2.31299,-0.25195 -0.68207,-0.11876 -1.27828,-0.2745 -1.79883,-0.47607 -0.26028,-0.10079 -0.50161,-0.21396 -0.7251,-0.33838 -0.22348,-0.12442 -0.42908,-0.26015 -0.61816,-0.41016 -0.18909,-0.15001 -0.36148,-0.31318 -0.51856,-0.49072 -0.15708,-0.17755 -0.2988,-0.37011 -0.42627,-0.57715 -0.12746,-0.20704 -0.24106,-0.42949 -0.34131,-0.66797 -0.10024,-0.23848 -0.18679,-0.49277 -0.2622,-0.76465 -0.15082,-0.54376 -0.25496,-1.15664 -0.3208,-1.8457 -0.0659,-0.68907 -0.0937,-1.45421 -0.0937,-2.3042 z" />
    <path
       id="path512"
       style="fill:#ffffff;fill-rule:evenodd;stroke:none;stroke-width:11.25;stroke-miterlimit:9.1;paint-order:fill markers stroke;stop-color:#000000"
       d="m 287.84763,374.94035 0.49951,5.2002 c 0.1125,1.06249 0.2239,1.9967 0.37354,2.81836 0.0748,0.41083 0.15862,0.79349 0.25781,1.1499 0.0992,0.35641 0.21355,0.68732 0.34717,0.99317 0.13362,0.30584 0.28625,0.58607 0.46435,0.84521 0.17811,0.25914 0.38113,0.49709 0.61377,0.71338 0.23265,0.21629 0.49523,0.41157 0.79248,0.58887 0.29725,0.17729 0.63005,0.33537 1.00196,0.47754 0.3719,0.14216 0.78263,0.2685 1.23925,0.37939 0.45663,0.11089 0.95886,0.20656 1.51026,0.29004 1.10279,0.16695 2.40552,0.28284 3.94775,0.36328 1.54223,0.0804 3.3241,0.12609 5.38623,0.15088 2.06213,0.0248 4.40392,0.0293 7.06641,0.0293 4.42497,0 7.75549,-4.4e-4 10.30078,-0.0396 1.27264,-0.0195 2.34991,-0.0483 3.26807,-0.0923 0.91815,-0.044 1.67823,-0.10348 2.31884,-0.18164 0.64062,-0.0782 1.16105,-0.17526 1.60108,-0.29736 0.44003,-0.1221 0.79981,-0.26805 1.11621,-0.44385 0.3164,-0.1758 0.59014,-0.38183 0.85986,-0.6211 0.26972,-0.23926 0.53497,-0.51221 0.83496,-0.8247 0.475,-0.45 0.86904,-0.89375 1.19239,-1.36084 0.16167,-0.23355 0.30572,-0.4732 0.43359,-0.72217 0.12787,-0.24897 0.23863,-0.50748 0.33545,-0.7793 0.19363,-0.54363 0.3287,-1.13974 0.41455,-1.81933 0.0858,-0.6796 0.12305,-1.44239 0.12305,-2.31739 v -4.5 h -23.09912 z" />
    <path
       id="path510"
       style="fill:#ffcc00;fill-opacity:1;fill-rule:evenodd;stroke:none;stroke-width:11.25;stroke-miterlimit:9.1;paint-order:fill markers stroke;stop-color:#000000"
       d="m 287.84763,374.94035 h 23.2002 23.09912 v 4.5 c 0,0.875 -0.0372,1.63779 -0.12305,2.31739 -0.0858,0.67959 -0.22092,1.2757 -0.41455,1.81933 -0.0968,0.27182 -0.20758,0.53033 -0.33545,0.7793 -0.12787,0.24897 -0.27192,0.48862 -0.43359,0.72217 -0.32335,0.46709 -0.71739,0.91084 -1.19239,1.36084 -0.29999,0.31249 -0.56524,0.58544 -0.83496,0.8247 -0.26972,0.23927 -0.54346,0.4453 -0.85986,0.6211 -0.3164,0.1758 -0.67618,0.32175 -1.11621,0.44385 -0.44003,0.1221 -0.96046,0.2192 -1.60108,0.29736 -0.64061,0.0782 -1.40069,0.13766 -2.31884,0.18164 -0.91816,0.044 -1.99543,0.0727 -3.26807,0.0923 -2.54529,0.0391 -5.87581,0.0396 -10.30078,0.0396 -2.66249,0 -5.00428,-0.005 -7.06641,-0.0293 -2.06213,-0.0248 -3.844,-0.0704 -5.38623,-0.15088 -1.54223,-0.0804 -2.84496,-0.19633 -3.94775,-0.36328 -0.5514,-0.0835 -1.05363,-0.17915 -1.51026,-0.29004 -0.45662,-0.11089 -0.86735,-0.23723 -1.23925,-0.37939 -0.37191,-0.14217 -0.70471,-0.30025 -1.00196,-0.47754 -0.29725,-0.1773 -0.55983,-0.37258 -0.79248,-0.58887 -0.23264,-0.21629 -0.43566,-0.45424 -0.61377,-0.71338 -0.1781,-0.25914 -0.33073,-0.53937 -0.46435,-0.84521 -0.13362,-0.30585 -0.24798,-0.63676 -0.34717,-0.99317 -0.0992,-0.35641 -0.18299,-0.73907 -0.25781,-1.1499 -0.14964,-0.82166 -0.26104,-1.75587 -0.37354,-2.81836 z" />
    <path
       id="path508"
       style="fill:#ffffff;fill-rule:evenodd;stroke:none;stroke-width:11.25;stroke-miterlimit:9.1;paint-order:fill markers stroke;stop-color:#000000"
       d="m 282.14792,352.93987 v 5.2998 c 0,1.11249 -0.008,2.08341 0.0366,2.92969 0.0222,0.42314 0.0571,0.81434 0.1128,1.17773 0.0557,0.3634 0.13153,0.69815 0.23584,1.00635 0.1043,0.3082 0.2379,0.59061 0.40576,0.84814 0.16785,0.25754 0.3703,0.49025 0.6167,0.70166 0.24639,0.21142 0.53605,0.40145 0.87597,0.57129 0.33993,0.16984 0.73076,0.31984 1.1792,0.45264 0.44845,0.1328 0.95442,0.24832 1.52637,0.34863 0.57196,0.10031 1.20996,0.18546 1.92041,0.25782 1.42091,0.14471 3.13388,0.23721 5.19873,0.29736 2.06485,0.0601 4.48087,0.0877 7.30957,0.0996 2.82871,0.0119 6.06975,0.009 9.78223,0.009 3.68748,0 6.90346,0.003 9.70752,-0.009 2.80406,-0.0121 5.19644,-0.0402 7.23779,-0.10108 2.04135,-0.0609 3.732,-0.15531 5.13135,-0.30175 0.69967,-0.0732 1.32638,-0.15925 1.88818,-0.26075 0.56181,-0.10149 1.05805,-0.21867 1.49707,-0.35302 0.43903,-0.13436 0.82003,-0.28523 1.15137,-0.45703 0.33134,-0.17181 0.61234,-0.36331 0.85107,-0.57715 0.23874,-0.21385 0.43497,-0.44997 0.5962,-0.71045 0.16122,-0.26048 0.28791,-0.54523 0.38671,-0.85694 0.0988,-0.3117 0.16973,-0.65055 0.2212,-1.01806 0.0515,-0.36752 0.0833,-0.76447 0.10253,-1.19238 0.0385,-0.85584 0.0278,-1.83693 0.0278,-2.96192 v -5.20019 h -28.99952 z" />
    <path
       id="path506"
       style="fill:#00dcdc;fill-opacity:1;fill-rule:evenodd;stroke:none;stroke-width:11.25;stroke-miterlimit:9.1;paint-order:fill markers stroke;stop-color:#000000"
       d="m 282.14792,352.93987 h 28.99951 28.99952 v 5.20019 c 0,1.12499 0.0106,2.10608 -0.0278,2.96192 -0.0192,0.42791 -0.0511,0.82486 -0.10253,1.19238 -0.0515,0.36751 -0.12239,0.70636 -0.2212,1.01806 -0.0988,0.31171 -0.22549,0.59646 -0.38671,0.85694 -0.16123,0.26048 -0.35746,0.4966 -0.5962,0.71045 -0.23873,0.21384 -0.51973,0.40534 -0.85107,0.57715 -0.33134,0.1718 -0.71234,0.32267 -1.15137,0.45703 -0.43902,0.13435 -0.93526,0.25153 -1.49707,0.35302 -0.5618,0.1015 -1.18851,0.18752 -1.88818,0.26075 -1.39935,0.14644 -3.09,0.24085 -5.13135,0.30175 -2.04135,0.0609 -4.43373,0.089 -7.23779,0.10108 -2.80406,0.0121 -6.02004,0.009 -9.70752,0.009 -3.71248,0 -6.95352,0.003 -9.78223,-0.009 -2.8287,-0.0119 -5.24472,-0.0395 -7.30957,-0.0996 -2.06485,-0.0601 -3.77782,-0.15265 -5.19873,-0.29736 -0.71045,-0.0724 -1.34845,-0.15751 -1.92041,-0.25782 -0.57195,-0.10031 -1.07792,-0.21583 -1.52637,-0.34863 -0.44844,-0.1328 -0.83927,-0.2828 -1.1792,-0.45264 -0.33992,-0.16984 -0.62958,-0.35987 -0.87597,-0.57129 -0.2464,-0.21141 -0.44885,-0.44412 -0.6167,-0.70166 -0.16786,-0.25753 -0.30146,-0.53994 -0.40576,-0.84814 -0.10431,-0.3082 -0.1801,-0.64295 -0.23584,-1.00635 -0.0557,-0.36339 -0.0906,-0.75459 -0.1128,-1.17773 -0.0443,-0.84628 -0.0366,-1.8172 -0.0366,-2.92969 z" />
    <path
       id="path504"
       style="fill:#ffffff;fill-rule:evenodd;stroke:none;stroke-width:11.25;stroke-miterlimit:9.1;paint-order:fill markers stroke;stop-color:#000000"
       d="m 316.14695,259.93987 v 42.49951 42.50097 h 5.50048 5.50049 v -42.50097 -42.49951 h -5.50049 z" />
    <path
       id="path502"
       style="fill:#00dcdc;fill-opacity:1;fill-rule:evenodd;stroke:none;stroke-width:11.25;stroke-miterlimit:9.1;paint-order:fill markers stroke;stop-color:#000000"
       d="m 316.14695,259.93987 h 5.50048 5.50049 v 42.49951 42.50097 h -5.50049 -5.50048 v -42.50097 z" />
    <path
       id="path500"
       style="fill:#ffffff;fill-rule:evenodd;stroke:none;stroke-width:11.25;stroke-miterlimit:9.1;paint-order:fill markers stroke;stop-color:#000000"
       d="m 339.09812,242.07756 c -0.19375,0.009 -0.39344,0.0518 -0.60645,0.12891 -0.21301,0.0771 -0.43861,0.18939 -0.68408,0.33545 -0.49094,0.29211 -1.06074,0.72285 -1.76074,1.29785 -0.525,0.4 -0.92538,0.7375 -1.21289,1.05469 -0.14376,0.15859 -0.25957,0.3121 -0.34863,0.46582 -0.0891,0.15371 -0.15146,0.30791 -0.18897,0.46728 -0.0375,0.15938 -0.049,0.32393 -0.0381,0.49951 0.0109,0.17559 0.0448,0.36162 0.10108,0.56397 0.11249,0.40468 0.3124,0.87373 0.5874,1.44873 0.2,0.425 0.41846,0.80009 0.65918,1.12353 0.24072,0.32345 0.50339,0.59569 0.79102,0.81446 0.28762,0.21876 0.60117,0.38417 0.94189,0.49511 0.34072,0.11095 0.70889,0.167 1.10889,0.167 0.54999,0 1.05919,-0.0668 1.52344,-0.19043 0.46424,-0.12365 0.88293,-0.30448 1.25244,-0.53028 0.36951,-0.2258 0.68928,-0.49626 0.95507,-0.80273 0.2658,-0.30647 0.47825,-0.64802 0.63135,-1.01367 0.1531,-0.36565 0.2469,-0.75682 0.27832,-1.16016 0.0314,-0.40334 10e-4,-0.81971 -0.0981,-1.23926 -0.0992,-0.41955 -0.2665,-0.8411 -0.50537,-1.25537 -0.23888,-0.41426 -0.55001,-0.821 -0.9375,-1.20849 -0.5,-0.5 -0.91914,-0.87544 -1.30957,-1.12061 -0.19522,-0.12258 -0.38347,-0.21236 -0.57129,-0.26953 -0.18782,-0.0572 -0.37461,-0.0812 -0.56836,-0.0718 z" />
    <path
       id="path498"
       style="fill:#00dcdc;fill-opacity:1;fill-rule:evenodd;stroke:none;stroke-width:11.25;stroke-miterlimit:9.1;paint-order:fill markers stroke;stop-color:#000000"
       d="m 339.09812,242.07756 c 0.19375,-0.009 0.38054,0.0146 0.56836,0.0718 0.18782,0.0572 0.37607,0.14695 0.57129,0.26953 0.39043,0.24517 0.80957,0.62061 1.30957,1.12061 0.38749,0.38749 0.69862,0.79423 0.9375,1.20849 0.23887,0.41427 0.40613,0.83582 0.50537,1.25537 0.0992,0.41955 0.12957,0.83592 0.0981,1.23926 -0.0314,0.40334 -0.12522,0.79451 -0.27832,1.16016 -0.1531,0.36565 -0.36555,0.7072 -0.63135,1.01367 -0.26579,0.30647 -0.58556,0.57693 -0.95507,0.80273 -0.36951,0.2258 -0.7882,0.40663 -1.25244,0.53028 -0.46425,0.12364 -0.97345,0.19043 -1.52344,0.19043 -0.4,0 -0.76817,-0.0561 -1.10889,-0.167 -0.34072,-0.11094 -0.65427,-0.27635 -0.94189,-0.49511 -0.28763,-0.21877 -0.5503,-0.49101 -0.79102,-0.81446 -0.24072,-0.32344 -0.45918,-0.69853 -0.65918,-1.12353 -0.275,-0.575 -0.47491,-1.04405 -0.5874,-1.44873 -0.0562,-0.20235 -0.0901,-0.38838 -0.10108,-0.56397 -0.0109,-0.17558 5.8e-4,-0.34013 0.0381,-0.49951 0.0375,-0.15937 0.0999,-0.31357 0.18897,-0.46728 0.0891,-0.15372 0.20487,-0.30723 0.34863,-0.46582 0.28751,-0.31719 0.68789,-0.65469 1.21289,-1.05469 0.7,-0.575 1.2698,-1.00574 1.76074,-1.29785 0.24547,-0.14606 0.47107,-0.25833 0.68408,-0.33545 0.21301,-0.0771 0.4127,-0.11953 0.60645,-0.12891 z" />
    <path
       id="path496"
       style="fill:#00dcdc;fill-opacity:1;fill-rule:evenodd;stroke:none;stroke-width:11.25;stroke-miterlimit:9.1;paint-order:fill markers stroke;stop-color:#000000"
       d="m 317.64695,183.2011 c -0.0882,0.001 -0.17083,0.0172 -0.24903,0.0527 -0.0782,0.0355 -0.15243,0.0905 -0.22119,0.17139 -0.13752,0.1617 -0.25695,0.42447 -0.36035,0.83349 -0.1034,0.40903 -0.19103,0.96379 -0.26514,1.70801 -0.0741,0.74422 -0.13347,1.6789 -0.1831,2.84619 -0.0993,2.33458 -0.15571,5.60316 -0.18604,10.15723 -0.0303,4.55407 -0.0351,10.3931 -0.0351,17.86963 v 34.1001 h 5.40088 5.2998 l 0.59912,-5.79932 c 0.125,-1.175 0.25614,-2.15074 0.42334,-2.98828 0.0836,-0.41877 0.17597,-0.80232 0.28125,-1.16016 0.10529,-0.35784 0.22304,-0.68942 0.35742,-1.00195 0.13439,-0.31253 0.28612,-0.60632 0.45703,-0.88916 0.17091,-0.28284 0.3623,-0.55447 0.57715,-0.82324 0.42971,-0.53755 0.95401,-1.0627 1.60401,-1.6377 0.62499,-0.55 1.18686,-0.99436 1.74316,-1.35058 0.27815,-0.17812 0.55582,-0.33352 0.83789,-0.47022 0.28207,-0.1367 0.56862,-0.25451 0.86865,-0.35449 0.30004,-0.1 0.61276,-0.18254 0.94483,-0.25049 0.33206,-0.0679 0.68386,-0.12052 1.06201,-0.16113 0.7563,-0.0812 1.61905,-0.1128 2.64404,-0.1128 1.1,0 1.9941,0.0242 2.76123,0.10694 0.38357,0.0413 0.73471,0.0985 1.06494,0.17285 0.33024,0.0743 0.6392,0.16716 0.93604,0.28271 0.29684,0.11556 0.58236,0.25251 0.86572,0.41748 0.28337,0.16497 0.56419,0.35748 0.85401,0.58008 0.57963,0.4452 1.19248,1.01377 1.91748,1.73877 0.34374,0.34375 0.66733,0.69341 0.97119,1.04883 0.30386,0.35542 0.58866,0.71708 0.85254,1.08252 0.26387,0.36543 0.50717,0.7351 0.73095,1.10889 0.22379,0.37378 0.42724,0.75184 0.61084,1.13232 0.18361,0.38048 0.3474,0.76293 0.49073,1.14844 0.14332,0.38551 0.26619,0.77274 0.36914,1.16162 0.10294,0.38888 0.18509,0.77982 0.24756,1.17041 0.0625,0.39059 0.10555,0.78124 0.12744,1.17187 0.0219,0.39064 0.0232,0.78139 0.004,1.17041 -0.0188,0.38903 -0.0576,0.77734 -0.11719,1.16309 -0.0596,0.38575 -0.1398,0.76908 -0.24023,1.1499 -0.10043,0.38082 -0.22189,0.7581 -0.36328,1.13233 -0.1414,0.37422 -0.3024,0.74438 -0.48486,1.11035 -0.18247,0.36597 -0.38575,0.72792 -0.60938,1.08398 -0.22363,0.35606 -0.46753,0.70728 -0.73242,1.05176 -0.26489,0.34448 -0.55069,0.68243 -0.85694,1.01367 -0.28749,0.3125 -0.6253,0.62216 -1.00341,0.92432 -0.37812,0.30216 -0.7966,0.59676 -1.24659,0.88037 -0.44998,0.28361 -0.93097,0.55614 -1.43408,0.81299 -0.50311,0.25685 -1.02843,0.49881 -1.56592,0.7207 -0.53748,0.2219 -1.08751,0.42332 -1.64062,0.60205 -0.55311,0.17873 -1.10968,0.33407 -1.65967,0.46143 -0.54998,0.12736 -1.09347,0.22665 -1.62158,0.29443 -0.52811,0.0678 -1.04034,0.10401 -1.52783,0.10401 -0.10625,0 -0.20618,0.01 -0.3003,0.0396 -0.0941,0.0295 -0.18241,0.0779 -0.26513,0.15381 -0.0827,0.0759 -0.1594,0.18023 -0.23145,0.31933 -0.072,0.1391 -0.14003,0.31405 -0.20215,0.5332 -0.12423,0.43832 -0.22898,1.05348 -0.31787,1.91309 -0.0889,0.85961 -0.16179,1.96373 -0.22119,3.37939 -0.11879,2.83133 -0.18376,6.90934 -0.21972,12.77344 -0.036,5.86411 -0.0425,13.51382 -0.0425,23.48877 v 42.49951 l 4.70069,-0.30029 4.69922,-0.30029 15.89941,-23.49903 c 2.17499,-3.22497 4.34335,-6.50655 6.40283,-9.67382 2.05949,-3.16728 4.0104,-6.22087 5.74805,-8.98975 1.73765,-2.76888 3.26268,-5.25342 4.47217,-7.2832 1.20948,-2.02978 2.10313,-3.60421 2.57812,-4.5542 0.68125,-1.40625 1.31188,-2.83541 1.89258,-4.28467 0.5807,-1.44926 1.11164,-2.91867 1.59229,-4.40479 0.48064,-1.48611 0.91091,-2.98903 1.29199,-4.50586 0.38108,-1.51682 0.71262,-3.04797 0.99463,-4.58935 0.282,-1.54139 0.51531,-3.09255 0.69873,-4.65234 0.18342,-1.5598 0.31751,-3.12718 0.40283,-4.69922 0.0853,-1.57205 0.12069,-3.14891 0.1084,-4.72705 -0.0123,-1.57815 -0.0722,-3.15774 -0.18164,-4.73584 -0.10941,-1.5781 -0.26711,-3.15516 -0.47315,-4.72705 -0.20603,-1.5719 -0.461,-3.13968 -0.76318,-4.69922 -0.30218,-1.55955 -0.65247,-3.11131 -1.05029,-4.65235 -0.39783,-1.54104 -0.84295,-3.0715 -1.33594,-4.58789 -0.49299,-1.51638 -1.03392,-3.01882 -1.62158,-4.50439 -0.58766,-1.48558 -1.22245,-2.95324 -1.9043,-4.40186 -0.68184,-1.44861 -1.41001,-2.8777 -2.18555,-4.2832 -0.77554,-1.40551 -1.59805,-2.7878 -2.46679,-4.14404 -0.6875,-1.06875 -1.41275,-2.12452 -2.17237,-3.16553 -0.75961,-1.04101 -1.55293,-2.0668 -2.3789,-3.07617 -0.82597,-1.00937 -1.68424,-2.00274 -2.5708,-2.97657 -0.88657,-0.97382 -1.80226,-1.92793 -2.74366,-2.8623 -0.94139,-0.93437 -1.90846,-1.84825 -2.89892,-2.73926 -0.99047,-0.89101 -2.00431,-1.75928 -3.03809,-2.60303 -1.03377,-0.84374 -2.08688,-1.66396 -3.1582,-2.45654 -1.07132,-0.79257 -2.16056,-1.55791 -3.26367,-2.29541 -1.10311,-0.7375 -2.22096,-1.44697 -3.3501,-2.12549 -1.12914,-0.67851 -2.26955,-1.32676 -3.41895,-1.94238 -1.1494,-0.61562 -2.30777,-1.19873 -3.47168,-1.74756 -1.1639,-0.54882 -2.33419,-1.06289 -3.50683,-1.54101 -1.17265,-0.47813 -2.34733,-0.91924 -3.52295,-1.32276 -1.17562,-0.40351 -2.35157,-0.76924 -3.52441,-1.09424 -1.17285,-0.32499 -2.34254,-0.60996 -3.50684,-0.85253 -1.1643,-0.24258 -2.32315,-0.44288 -3.47315,-0.59913 -1.39997,-0.2 -2.84946,-0.42588 -4.06201,-0.63867 -1.21255,-0.21279 -2.18818,-0.4125 -2.63818,-0.5625 -0.10625,-0.025 -0.20618,-0.0393 -0.30029,-0.0381 z" />
    <path
       id="path494"
       style="fill:#ffcc00;fill-rule:evenodd;stroke:none;stroke-width:11.25;stroke-miterlimit:9.1;paint-order:fill markers stroke;stop-color:#000000"
       d="m 308.14743,182.94035 -2.20019,0.0996 c -0.73749,0.025 -1.4887,0.10294 -2.24414,0.22852 -0.75545,0.12558 -1.51449,0.29932 -2.26758,0.51416 -0.75309,0.21484 -1.50053,0.47041 -2.23096,0.76318 -0.73042,0.29277 -1.44389,0.62208 -2.13134,0.98145 -0.68746,0.35937 -1.34897,0.74991 -1.97315,1.16455 -0.62417,0.41464 -1.21136,0.85391 -1.75195,1.3125 -0.54059,0.45859 -1.03401,0.93555 -1.4707,1.42676 -0.4367,0.4912 -0.8169,0.99629 -1.1294,1.50879 -0.475,0.82498 -0.8312,1.50033 -1.07812,2.12695 -0.12347,0.31331 -0.22009,0.61373 -0.29004,0.91553 -0.07,0.30179 -0.11305,0.60425 -0.13184,0.91992 -0.0188,0.31567 -0.0125,0.64556 0.0176,1.00049 0.03,0.35492 0.0831,0.73473 0.15967,1.15429 0.15306,0.83913 0.39718,1.8335 0.72216,3.0835 l 1.1001,3.69873 6.3003,-0.59912 c 1.44998,-0.125 2.58066,-0.21192 3.47753,-0.24317 0.44844,-0.0156 0.83887,-0.0178 1.18067,-0.003 0.3418,0.0148 0.63584,0.0467 0.89209,0.0967 0.25625,0.05 0.4747,0.11817 0.6665,0.20801 0.1918,0.0898 0.35693,0.20108 0.50537,0.33545 0.14844,0.13438 0.27959,0.29248 0.40577,0.47608 0.12617,0.18359 0.24707,0.39238 0.37207,0.62988 0.14999,0.275 0.27514,0.58758 0.37353,0.91406 0.0984,0.32648 0.17018,0.66642 0.21387,0.99756 0.0437,0.33114 0.0595,0.65291 0.0454,0.94189 -0.0141,0.28898 -0.0583,0.54561 -0.1333,0.74561 -0.075,0.2 -0.15644,0.38161 -0.25489,0.54785 -0.0984,0.16624 -0.21366,0.31714 -0.35742,0.45703 -0.14375,0.1399 -0.3164,0.26869 -0.52734,0.38965 -0.21095,0.12096 -0.46025,0.2348 -0.76026,0.34424 -0.60001,0.21889 -1.39979,0.42139 -2.4873,0.63867 -1.08751,0.21729 -2.4629,0.44864 -4.21289,0.72363 -0.55,0.0875 -1.10852,0.24211 -1.66553,0.45557 -0.55701,0.21346 -1.11282,0.48597 -1.65967,0.80859 -0.54684,0.32262 -1.08451,0.69536 -1.604,1.11036 -0.51949,0.41499 -1.02065,0.87172 -1.49561,1.3623 -0.47495,0.49058 -0.92269,1.01509 -1.33593,1.56445 -0.41324,0.54937 -0.79212,1.12397 -1.12647,1.71534 -0.33434,0.59136 -0.62453,1.19982 -0.86279,1.8164 -0.23826,0.61658 -0.42432,1.24122 -0.54932,1.86621 -0.2,0.9 -0.50032,1.87471 -0.81299,2.69971 -0.15633,0.4125 -0.31565,0.78779 -0.46728,1.09717 -0.15163,0.30937 -0.29541,0.55312 -0.42041,0.70312 -0.175,0.225 -0.37392,0.41847 -0.59033,0.58155 -0.21642,0.16307 -0.45038,0.2961 -0.69727,0.39843 -0.24689,0.10233 -0.50554,0.17404 -0.77197,0.2168 -0.26643,0.0428 -0.54089,0.0567 -0.81592,0.041 -0.27502,-0.0156 -0.55203,-0.0604 -0.82471,-0.13331 -0.27267,-0.0729 -0.54041,-0.1743 -0.7998,-0.30322 -0.25939,-0.12892 -0.51044,-0.28495 -0.74561,-0.46875 -0.23516,-0.18379 -0.45478,-0.39531 -0.65478,-0.63281 -0.1,-0.125 -0.18761,-0.26973 -0.26221,-0.43359 -0.0746,-0.16387 -0.13605,-0.34718 -0.18603,-0.54639 -0.1,-0.39842 -0.152,-0.86409 -0.15821,-1.38281 -0.006,-0.51873 0.033,-1.08978 0.11426,-1.70069 0.0813,-0.6109 0.20512,-1.26156 0.36768,-1.93652 0.16256,-0.67496 0.36449,-1.37504 0.60205,-2.08594 0.23756,-0.7109 0.51109,-1.43167 0.81738,-2.15039 0.3063,-0.71872 0.6449,-1.43439 1.01367,-2.13281 0.36878,-0.69842 0.76739,-1.38028 1.19239,-2.03027 0.44999,-0.7 0.80645,-1.29942 1.07666,-1.83692 0.2702,-0.5375 0.45345,-1.01338 0.55957,-1.46338 0.053,-0.225 0.0876,-0.44345 0.10254,-0.66064 0.015,-0.21719 0.0109,-0.43311 -0.0103,-0.65186 -0.0423,-0.4375 -0.15459,-0.88721 -0.32959,-1.3872 -0.15,-0.35 -0.30671,-0.8064 -0.46289,-1.33301 -0.15618,-0.52661 -0.31152,-1.12357 -0.46143,-1.75488 -0.2998,-1.26263 -0.5749,-2.66262 -0.7749,-3.9126 l -0.70019,-4.5 -4.69922,0.20068 c -0.725,0.0375 -1.41503,0.0989 -2.07715,0.18604 -0.66212,0.0871 -1.29627,0.20059 -1.90723,0.34277 -0.61095,0.14218 -1.19949,0.3129 -1.77099,0.51562 -0.57151,0.20273 -1.12616,0.43732 -1.66992,0.70606 -0.54377,0.26874 -1.07626,0.57091 -1.60401,0.91113 -0.52775,0.34022 -1.05126,0.71808 -1.57471,1.13526 -0.52345,0.41717 -1.04677,0.87442 -1.57763,1.37402 -0.53087,0.4996 -1.06866,1.04141 -1.61865,1.62891 -0.6875,0.72499 -1.32149,1.48711 -1.89844,2.2705 -0.57696,0.7834 -1.09638,1.58789 -1.5542,2.39649 -0.45782,0.8086 -0.85498,1.62226 -1.18506,2.42285 -0.33008,0.80059 -0.59286,1.58876 -0.78662,2.34814 -0.19376,0.75939 -0.31738,1.48886 -0.36621,2.17383 -0.0244,0.34249 -0.031,0.67405 -0.0176,0.9917 0.0134,0.31766 0.0458,0.62246 0.0981,0.91113 0.0523,0.28868 0.12447,0.56184 0.2168,0.81739 0.0923,0.25554 0.20498,0.49365 0.33838,0.71191 0.1334,0.21826 0.28735,0.41643 0.46289,0.59326 0.17554,0.17683 0.37305,0.33165 0.5918,0.46289 0.3375,0.2125 0.70667,0.54541 1.09277,0.97119 0.38611,0.42579 0.78979,0.94492 1.19678,1.5293 0.40698,0.58439 0.81715,1.23358 1.21728,1.92188 0.40014,0.68829 0.7902,1.41581 1.15577,2.15332 0.36556,0.73751 0.70601,1.48573 1.00927,2.21777 0.30327,0.73204 0.56899,1.44775 0.78223,2.11963 0.21323,0.67188 0.37473,1.29892 0.47021,1.85596 0.0955,0.55703 0.12471,1.04365 0.0747,1.43115 -0.05,0.525 -0.13125,0.96308 -0.25781,1.32715 -0.0633,0.18203 -0.13789,0.34511 -0.22559,0.49218 -0.0877,0.14707 -0.18906,0.27696 -0.30468,0.39258 -0.11563,0.11563 -0.24551,0.21699 -0.39258,0.30469 -0.14707,0.0877 -0.31016,0.1623 -0.49219,0.22559 -0.36406,0.12656 -0.80215,0.20781 -1.32715,0.25781 -0.3125,0.0375 -0.59388,0.0621 -0.85107,0.0674 -0.25719,0.005 -0.48971,-0.008 -0.70606,-0.0498 -0.21634,-0.0414 -0.41648,-0.10985 -0.60644,-0.21241 -0.18997,-0.10255 -0.36981,-0.23934 -0.54785,-0.41748 -0.17805,-0.17813 -0.35408,-0.39832 -0.53467,-0.6665 -0.18059,-0.26818 -0.36637,-0.58534 -0.56397,-0.95801 -0.39519,-0.74533 -0.83867,-1.71338 -1.38867,-2.96338 -0.35,-0.77499 -0.72486,-1.5307 -1.10303,-2.23388 -0.37817,-0.70319 -0.75951,-1.35343 -1.12207,-1.91602 -0.36256,-0.56259 -0.7061,-1.03841 -1.00927,-1.3916 -0.15159,-0.1766 -0.29335,-0.32225 -0.42188,-0.43359 -0.12853,-0.11135 -0.24424,-0.18809 -0.34424,-0.22559 -0.225,-0.075 -0.56279,-0.0744 -0.97998,-0.0102 -0.41719,0.0641 -0.91377,0.19216 -1.45752,0.37353 -0.54375,0.18137 -1.13408,0.41622 -1.73877,0.69287 -0.60468,0.27666 -1.22373,0.59483 -1.82373,0.94483 -0.56874,0.33124 -1.11633,0.70146 -1.64209,1.10742 -0.52575,0.40595 -1.0291,0.84746 -1.51025,1.32129 -0.48116,0.47382 -0.94055,0.97978 -1.37549,1.51465 -0.43494,0.53486 -0.84628,1.09844 -1.2334,1.6875 -0.38711,0.58906 -0.74923,1.20342 -1.08691,1.83984 -0.33768,0.63642 -0.65087,1.29473 -0.9375,1.97168 -0.28663,0.67695 -0.54679,1.37236 -0.78076,2.08301 -0.23397,0.71064 -0.4414,1.43779 -0.6211,2.17529 -0.17969,0.7375 -0.33175,1.48662 -0.45556,2.24414 -0.12382,0.75752 -0.21933,1.52325 -0.28565,2.29395 -0.0663,0.7707 -0.10412,1.54619 -0.11133,2.32324 -0.007,0.77705 0.0153,1.55547 0.0688,2.33203 0.0535,0.77656 0.13905,1.55108 0.25488,2.32031 0.11584,0.76924 0.26261,1.53301 0.44239,2.28809 0.17978,0.75507 0.39187,1.50127 0.6372,2.23535 0.24534,0.73408 0.52393,1.45586 0.83643,2.16211 0.3,0.65 0.62524,1.28703 0.95654,1.88232 0.33131,0.5953 0.66809,1.14915 0.99317,1.63037 0.32507,0.48123 0.63861,0.89045 0.91992,1.19825 0.2813,0.30779 0.53096,0.51386 0.73096,0.58886 0.13749,0.0562 0.30249,0.0965 0.49365,0.12159 0.19116,0.0251 0.40781,0.0351 0.64746,0.0308 0.4793,-0.009 1.05117,-0.0748 1.69336,-0.19043 0.64219,-0.11563 1.35595,-0.28067 2.11963,-0.48926 0.76368,-0.20859 1.57763,-0.45957 2.42138,-0.74707 0.84376,-0.2875 1.71621,-0.61152 2.59864,-0.96387 0.88242,-0.35234 1.7746,-0.73359 2.65429,-1.13672 0.87969,-0.40312 1.74698,-0.82871 2.58252,-1.26855 0.83555,-0.43984 1.63917,-0.89395 2.38916,-1.35645 l 5.2002,-3.09961 0.0996,-6.60058 c 0.025,-0.85 0.0686,-1.64191 0.13183,-2.37744 0.0633,-0.73553 0.14592,-1.41419 0.24903,-2.0376 0.1031,-0.62341 0.22756,-1.19144 0.37207,-1.70508 0.14451,-0.51364 0.3091,-0.97367 0.49658,-1.37988 0.18747,-0.40622 0.39641,-0.75941 0.62842,-1.06055 0.23201,-0.30114 0.488,-0.55012 0.76611,-0.74853 0.27811,-0.19841 0.5795,-0.34582 0.90527,-0.44385 0.32577,-0.098 0.6753,-0.14649 1.0503,-0.14649 0.39999,0 0.76475,0.0334 1.09424,0.10254 0.32948,0.0691 0.62305,0.17407 0.88476,0.31934 0.26171,0.14527 0.49034,0.32964 0.68701,0.5581 0.19668,0.22847 0.36221,0.50162 0.49658,0.82032 0.13437,0.31869 0.23868,0.68413 0.31348,1.10009 0.0748,0.41597 0.11973,0.88159 0.1377,1.40186 0.018,0.52027 0.008,1.09397 -0.0278,1.72559 -0.0361,0.63161 -0.0985,1.32129 -0.18603,2.07129 l -0.59912,5.80078 4.69922,4.59961 c 1.27499,1.27498 2.24434,2.263 2.94433,3.06298 0.35,0.4 0.63223,0.75206 0.85254,1.0708 0.22031,0.31875 0.37754,0.60323 0.47754,0.86573 0.1,0.26249 0.14277,0.5041 0.13184,0.73535 -0.0109,0.23124 -0.075,0.45322 -0.1875,0.67822 -0.1125,0.225 -0.27286,0.45205 -0.47754,0.6958 -0.20469,0.24375 -0.45372,0.50352 -0.74121,0.79102 -0.2625,0.275 -0.51005,0.51248 -0.74854,0.71191 -0.23849,0.19943 -0.46833,0.36072 -0.69726,0.4834 -0.22893,0.12268 -0.45613,0.20719 -0.68994,0.25195 -0.23382,0.0448 -0.47341,0.0505 -0.72657,0.0161 -0.25315,-0.0343 -0.52018,-0.10951 -0.80713,-0.22412 -0.28694,-0.11462 -0.59353,-0.26976 -0.92871,-0.46582 -0.67036,-0.39214 -1.45234,-0.94786 -2.40234,-1.67286 l -3.19922,-2.50048 -8.40088,4.40039 c -1.12499,0.62499 -2.38095,1.25032 -3.68555,1.84716 -1.30459,0.59685 -2.65842,1.16479 -3.97705,1.67725 -1.31863,0.51246 -2.60194,0.96848 -3.76904,1.34033 -1.1671,0.37185 -2.21739,0.65996 -3.06738,0.83496 -0.8875,0.1875 -1.68272,0.37463 -2.39502,0.57422 -0.7123,0.19959 -1.34152,0.41156 -1.89697,0.64746 -0.55546,0.23591 -1.03761,0.49604 -1.45459,0.79248 -0.41698,0.29644 -0.76955,0.62954 -1.06641,1.01075 -0.29686,0.3812 -0.53732,0.81059 -0.73242,1.30078 -0.19511,0.49019 -0.34386,1.04066 -0.45557,1.66406 -0.11171,0.6234 -0.18623,1.31975 -0.23291,2.10059 -0.0467,0.78083 -0.0659,1.64639 -0.0659,2.60888 0,0.725 0.0485,1.43866 0.14356,2.13867 0.0951,0.70002 0.23665,1.3864 0.42334,2.05518 0.18669,0.66878 0.4181,1.31988 0.69287,1.95117 0.27477,0.63129 0.59281,1.24351 0.95215,1.83106 0.35934,0.58754 0.76077,1.15142 1.20117,1.68896 0.44039,0.53754 0.92053,1.04802 1.43848,1.5293 0.51794,0.48128 1.07355,0.93328 1.66552,1.35205 0.59198,0.41877 1.21983,0.8043 1.88233,1.1543 0.79999,0.42499 1.44445,0.75024 2.00537,0.97998 0.28046,0.11487 0.53985,0.20611 0.78808,0.27392 0.24823,0.0678 0.48488,0.11139 0.71924,0.1333 0.23437,0.0219 0.46574,0.0213 0.70459,-0.001 0.23886,-0.0228 0.48536,-0.0669 0.74707,-0.1333 0.52342,-0.13276 1.11045,-0.35186 1.83545,-0.65186 1.8,-0.7 4.69995,-1.80088 6.3999,-2.40088 0.625,-0.225 1.14417,-0.45575 1.58643,-0.73388 0.22113,-0.13907 0.42281,-0.29092 0.60938,-0.4585 0.18656,-0.16759 0.35766,-0.35185 0.51708,-0.55811 0.15943,-0.20625 0.30709,-0.43339 0.44678,-0.68847 0.1397,-0.25509 0.27106,-0.53701 0.39844,-0.85108 0.25476,-0.62813 0.49268,-1.38507 0.74268,-2.31005 0.17499,-0.65 0.36184,-1.26438 0.56103,-1.84131 0.1992,-0.57693 0.41097,-1.11713 0.63281,-1.61866 0.22184,-0.50152 0.45434,-0.96343 0.69727,-1.3872 0.24292,-0.42378 0.49633,-0.80914 0.75879,-1.15283 0.26245,-0.3437 0.53403,-0.64693 0.81445,-0.90821 0.28043,-0.26128 0.56889,-0.47973 0.86572,-0.65625 0.29684,-0.17652 0.60237,-0.31047 0.91407,-0.3999 0.31169,-0.0894 0.63008,-0.13477 0.95507,-0.13477 0.3625,0 0.69581,0.0454 0.99756,0.1333 0.30176,0.0879 0.57179,0.21791 0.81006,0.38819 0.23827,0.17028 0.44464,0.38119 0.6167,0.62842 0.17206,0.24722 0.30997,0.5309 0.41309,0.84961 0.10311,0.3187 0.17071,0.67142 0.20215,1.05615 0.0314,0.38472 0.0269,0.8013 -0.0161,1.24658 -0.043,0.44528 -0.1245,0.91906 -0.24463,1.41943 -0.12012,0.50038 -0.279,1.02764 -0.479,1.57764 -0.2625,0.73749 -0.48723,1.40936 -0.67236,2.02734 -0.18514,0.61799 -0.3305,1.18172 -0.4336,1.70362 -0.10309,0.5219 -0.1638,1.0024 -0.18017,1.45166 -0.0164,0.44925 0.0114,0.86705 0.0864,1.26709 0.075,0.40004 0.19655,0.7815 0.36768,1.15576 0.17113,0.37425 0.39167,0.74138 0.66357,1.11328 0.2719,0.3719 0.5953,0.74959 0.97266,1.14258 0.37735,0.39298 0.80889,0.80176 1.29638,1.23926 0.4625,0.42499 0.87706,0.82747 1.24366,1.21142 0.36659,0.38395 0.68536,0.74878 0.95801,1.09717 0.27264,0.34839 0.49903,0.68073 0.67968,0.99902 0.18066,0.3183 0.31515,0.62331 0.40576,0.917 0.0906,0.29368 0.13664,0.57652 0.13916,0.85107 0.003,0.27455 -0.038,0.54038 -0.12158,0.80127 -0.0836,0.26089 -0.21015,0.51634 -0.37793,0.76904 -0.16778,0.25271 -0.37695,0.50293 -0.62695,0.75293 -0.25,0.25 -0.50321,0.45918 -0.76318,0.62696 -0.25998,0.16777 -0.52684,0.29432 -0.8042,0.37792 -0.27737,0.0836 -0.56501,0.12412 -0.86719,0.12159 -0.30218,-0.003 -0.61921,-0.0485 -0.95361,-0.13916 -0.33441,-0.0906 -0.6865,-0.22511 -1.06055,-0.40576 -0.37405,-0.18066 -0.7698,-0.40705 -1.19092,-0.67969 -0.42112,-0.27265 -0.86766,-0.59142 -1.34326,-0.95801 -0.4756,-0.36659 -0.98008,-0.78116 -1.51758,-1.24365 -0.99999,-0.85 -1.75672,-1.49302 -2.38476,-1.95703 -0.31403,-0.23201 -0.59546,-0.41995 -0.85987,-0.56543 -0.26441,-0.14548 -0.51069,-0.24935 -0.75439,-0.31494 -0.2437,-0.0656 -0.48491,-0.0926 -0.73682,-0.085 -0.25191,0.008 -0.51517,0.0503 -0.8042,0.12452 -0.57805,0.14848 -1.25918,0.42334 -2.15918,0.79834 -0.43124,0.18124 -0.83623,0.3939 -1.21435,0.63427 -0.37813,0.24038 -0.72969,0.50851 -1.05469,0.80127 -0.325,0.29277 -0.62314,0.60934 -0.89502,0.94776 -0.27188,0.33841 -0.5166,0.69933 -0.73535,1.07666 -0.21876,0.37733 -0.41152,0.77116 -0.57715,1.18066 -0.16563,0.40951 -0.30497,0.83361 -0.41748,1.26856 -0.11251,0.43494 -0.19843,0.88082 -0.25781,1.33447 -0.0594,0.45364 -0.0919,0.91574 -0.0982,1.38135 -0.006,0.4656 0.0147,0.93541 0.0615,1.40625 0.0469,0.47083 0.11973,0.94279 0.21972,1.41211 0.1,0.46931 0.22628,0.93639 0.3794,1.39746 0.15311,0.46106 0.33282,0.91622 0.53906,1.3623 0.20624,0.44608 0.43936,0.88229 0.69873,1.30664 0.25937,0.42436 0.54444,0.83604 0.85693,1.23193 0.3125,0.3959 0.65245,0.77603 1.01807,1.13672 0.36562,0.36069 0.75752,0.70225 1.17627,1.021 0.4,0.3 0.84874,0.59636 1.33447,0.88623 0.48574,0.28987 1.00793,0.57329 1.55713,0.84522 0.54921,0.27192 1.12492,0.53314 1.71533,0.77929 0.59042,0.24616 1.1968,0.47738 1.80616,0.68994 0.60935,0.21257 1.22208,0.406 1.82812,0.57715 0.60604,0.17116 1.20519,0.32046 1.78565,0.44238 0.58045,0.12193 1.1417,0.21638 1.67431,0.28125 0.53261,0.0649 1.03604,0.0996 1.49854,0.0996 0.20624,0 0.43327,-0.033 0.67968,-0.0967 0.24642,-0.0637 0.51152,-0.1578 0.79248,-0.27978 0.56193,-0.24397 1.18807,-0.59986 1.8545,-1.04443 0.66642,-0.44458 1.37312,-0.97876 2.09912,-1.58057 0.726,-0.60181 1.47126,-1.27065 2.21191,-1.98633 0.74065,-0.71568 1.4781,-1.477 2.18848,-2.26318 0.71037,-0.78619 1.39363,-1.59782 2.02881,-2.41114 0.63517,-0.81332 1.22225,-1.62869 1.7373,-2.42578 0.51505,-0.79709 0.95811,-1.57549 1.30811,-2.31298 0.69999,-1.45 1.30689,-2.60572 1.86621,-3.50098 0.27966,-0.44763 0.54652,-0.83011 0.80859,-1.15137 0.26208,-0.32125 0.51869,-0.58207 0.7749,-0.78515 0.25622,-0.20309 0.51283,-0.34926 0.77491,-0.44239 0.26207,-0.0931 0.52893,-0.13313 0.80859,-0.12451 0.27966,0.009 0.5714,0.0663 0.88037,0.16846 0.30897,0.10216 0.63584,0.24902 0.98584,0.43652 0.175,0.0906 0.33477,0.19534 0.47901,0.31348 0.14423,0.11814 0.27229,0.25 0.38671,0.39404 0.22886,0.28809 0.4002,0.62578 0.51563,1.00781 0.11543,0.38204 0.17632,0.8084 0.18603,1.27149 0.01,0.46309 -0.0318,0.96288 -0.12011,1.49414 -0.0883,0.53126 -0.22427,1.09364 -0.40284,1.68017 -0.17856,0.58654 -0.39951,1.19775 -0.66064,1.82666 -0.26113,0.62892 -0.56197,1.27519 -0.89795,1.9336 -0.33598,0.65841 -0.70723,1.32889 -1.11035,2.0039 -0.40312,0.67501 -0.83824,1.35449 -1.30078,2.03321 -0.46255,0.67872 -0.95352,1.35634 -1.46778,2.02588 -0.51425,0.66954 -1.05161,1.33153 -1.60986,1.979 -0.55825,0.64747 -1.13692,1.28007 -1.73144,1.89258 -0.59453,0.6125 -1.20504,1.20488 -1.82813,1.76953 -0.62309,0.56465 -1.25889,1.10156 -1.90283,1.60547 -0.64394,0.50391 -1.29556,0.97451 -1.95264,1.40478 -0.65707,0.43028 -1.31943,0.82081 -1.98193,1.16455 -0.825,0.425 -1.57745,0.86993 -2.25733,1.33301 -0.67987,0.46308 -1.28731,0.94386 -1.81933,1.43994 -0.53202,0.49609 -0.98966,1.00822 -1.37109,1.53223 -0.38144,0.52401 -0.68595,1.06007 -0.91407,1.60693 -0.11405,0.27343 -0.20896,0.54945 -0.28418,0.82764 -0.0752,0.27819 -0.13096,0.5585 -0.16699,0.84082 -0.036,0.28232 -0.0533,0.56673 -0.0498,0.85254 0.003,0.28581 0.0269,0.57266 0.0703,0.86133 0.0434,0.28866 0.10686,0.57923 0.19043,0.87011 0.0836,0.29089 0.18789,0.5835 0.31201,0.87598 0.24824,0.58496 0.57774,1.17178 0.99023,1.75928 0.175,0.2625 0.33877,0.49355 0.52002,0.69726 0.18126,0.20372 0.38027,0.37939 0.62403,0.53174 0.24375,0.15236 0.53251,0.28124 0.89502,0.38965 0.3625,0.10841 0.79843,0.19765 1.33593,0.26953 0.53751,0.0719 1.17657,0.12714 1.94532,0.16992 0.76875,0.0428 1.66689,0.0727 2.72314,0.0937 2.1125,0.0422 4.85657,0.0483 8.45654,0.0483 h 14.90039 v -29.2998 -29.30127 l -2.6997,-2.6001 c -0.45,-0.42499 -0.90147,-0.81849 -1.35791,-1.18213 -0.45644,-0.36363 -0.91769,-0.69732 -1.38721,-1.00195 -0.46952,-0.30463 -0.94776,-0.58112 -1.43701,-0.8291 -0.48925,-0.24798 -0.99025,-0.46697 -1.50586,-0.66065 -0.51561,-0.19367 -1.04513,-0.36071 -1.59375,-0.50244 -0.54862,-0.14173 -1.11534,-0.25943 -1.70361,-0.35156 -0.58828,-0.0921 -1.19796,-0.15872 -1.83252,-0.20361 -0.63457,-0.0449 -1.29444,-0.0674 -1.98194,-0.0674 -1.19998,0 -2.45009,-0.0748 -3.51269,-0.1875 -1.0626,-0.11264 -1.9377,-0.26308 -2.3877,-0.41308 -0.25,-0.1 -0.47042,-0.25039 -0.66064,-0.43946 -0.19022,-0.18906 -0.3508,-0.41611 -0.48047,-0.67236 -0.12967,-0.25625 -0.22903,-0.54073 -0.29736,-0.84228 -0.0683,-0.30156 -0.10511,-0.6213 -0.11133,-0.94629 -0.006,-0.325 0.0195,-0.65636 0.0762,-0.98291 0.0567,-0.32656 0.14481,-0.64737 0.26514,-0.95362 0.12033,-0.30624 0.27225,-0.59727 0.45703,-0.86132 0.18477,-0.26406 0.40186,-0.50167 0.65185,-0.70166 0.125,-0.10625 0.28533,-0.20305 0.47754,-0.29004 0.19221,-0.087 0.41632,-0.16464 0.66797,-0.23291 0.5033,-0.13655 1.11751,-0.23542 1.81201,-0.3003 0.69451,-0.0649 1.46889,-0.0948 2.29248,-0.0923 0.8236,0.002 1.69633,0.037 2.58692,0.10254 0.89059,0.0656 1.79984,0.16127 2.69531,0.28564 0.89547,0.12438 1.77796,0.27816 2.61621,0.45703 0.83825,0.17888 1.63215,0.38323 2.35107,0.61231 0.71893,0.22908 1.36241,0.48232 1.89991,0.75732 0.95,0.45 1.84966,0.87532 2.53711,1.18799 0.68745,0.31267 1.16269,0.5127 1.26269,0.5127 0.05,0 0.12493,-1.17539 0.1875,-3.06299 0.0626,-1.8876 0.11279,-4.48743 0.11279,-7.3374 v -10.39893 l -4.10009,-3.60059 c -0.725,-0.62499 -1.46247,-1.18175 -2.22803,-1.68017 -0.76556,-0.49843 -1.55907,-0.93781 -2.39648,-1.33155 -0.83742,-0.39374 -1.71814,-0.74082 -2.6587,-1.05175 -0.94056,-0.31093 -1.94111,-0.58643 -3.01611,-0.83643 -1.34999,-0.3 -2.40616,-0.55021 -3.23584,-0.79248 -0.41484,-0.12113 -0.77256,-0.24077 -1.08252,-0.36328 -0.30995,-0.12251 -0.57207,-0.2479 -0.79394,-0.38232 -0.22187,-0.13443 -0.4046,-0.27671 -0.55518,-0.4336 -0.15058,-0.15689 -0.26866,-0.32867 -0.36475,-0.51855 -0.0961,-0.18989 -0.17011,-0.39793 -0.22851,-0.63135 -0.0584,-0.23342 -0.10166,-0.4918 -0.13916,-0.7793 -0.05,-0.45 -0.0565,-0.86287 -0.019,-1.23779 0.0375,-0.37492 0.11962,-0.71232 0.24462,-1.01221 0.125,-0.29989 0.29288,-0.5617 0.50538,-0.78662 0.2125,-0.22492 0.46904,-0.4125 0.76904,-0.5625 0.3,-0.1625 0.68157,-0.2824 1.12939,-0.36328 0.44782,-0.0809 0.96148,-0.12272 1.52784,-0.12744 0.56635,-0.005 1.18571,0.0278 1.8413,0.0937 0.6556,0.066 1.34842,0.16615 2.06397,0.29736 0.71555,0.13121 1.45251,0.29242 2.19873,0.4834 0.74622,0.19098 1.50093,0.41097 2.24853,0.65625 0.7476,0.24528 1.48929,0.51594 2.20899,0.81006 0.71969,0.29412 1.41758,0.61172 2.08008,0.94922 l 4.00048,2.00097 v -30 z" />
  </g>
  <rect
     style="fill:#005454;fill-opacity:1;fill-rule:evenodd;stroke:none;stroke-width:13.0857;stroke-miterlimit:9.1;paint-order:fill markers stroke;stop-color:#000000"
     id="rect4861"
     width="15.691442"
     height="70.611488"
     x="320.13602"
     y="79.928688"
     ry="7.8457212" />
  <rect
     style="fill:#005454;fill-opacity:1;fill-rule:evenodd;stroke:none;stroke-width:13.0857;stroke-miterlimit:9.1;paint-order:fill markers stroke;stop-color:#000000"
     id="rect4878"
     width="15.691442"
     height="70.611488"
     x="416.59091"
     y="-247.42715"
     ry="7.8457212"
     transform="rotate(45)" />
  <rect
     style="fill:#005454;fill-opacity:1;fill-rule:evenodd;stroke:none;stroke-width:13.0857;stroke-miterlimit:9.1;paint-order:fill markers stroke;stop-color:#000000"
     id="rect4880"
     width="15.691442"
     height="70.611488"
     x="-47.245323"
     y="216.409"
     ry="7.8457212"
     transform="matrix(-0.70710678,0.70710678,0.70710678,0.70710678,0,0)" />
  <rect
     style="fill:#005454;fill-opacity:1;fill-rule:evenodd;stroke:none;stroke-width:13.0857;stroke-miterlimit:9.1;paint-order:fill markers stroke;stop-color:#000000"
     id="rect4882"
     width="15.691442"
     height="70.611488"
     x="246.96901"
     y="-520.31537"
     ry="7.8457212"
     transform="rotate(90)" />
  <rect
     style="fill:#005454;fill-opacity:1;fill-rule:evenodd;stroke:none;stroke-width:13.0857;stroke-miterlimit:9.1;paint-order:fill markers stroke;stop-color:#000000"
     id="rect4884"
     width="15.691442"
     height="70.611488"
     x="246.96899"
     y="135.64813"
     ry="7.8457212"
     transform="matrix(0,1,1,0,0,0)" />
</svg>
